<svg xmlns="http://www.w3.org/2000/svg" xmlns:xlink="http://www.w3.org/1999/xlink" width="500" zoomAndPan="magnify" viewBox="0 0 375 374.999991" height="500" preserveAspectRatio="xMidYMid meet" version="1.0"><defs><filter x="0%" y="0%" width="100%" height="100%" id="b42df0e3f7"><feColorMatrix values="0 0 0 0 1 0 0 0 0 1 0 0 0 0 1 0 0 0 1 0" color-interpolation-filters="sRGB"/></filter><clipPath id="ccfb45c62f"><path d="M 0 200 L 185 200 L 185 362 L 0 362 Z M 0 200 " clip-rule="nonzero"/></clipPath><clipPath id="f5c2027f14"><path d="M 69.105469 160.320312 L 207.945312 240.40625 L 114.753906 401.96875 L -24.085938 321.878906 Z M 69.105469 160.320312 " clip-rule="nonzero"/></clipPath><clipPath id="483746079c"><path d="M 138.527344 200.363281 L 184.648438 280.796875 L 138.050781 361.578125 L 45.332031 361.925781 L -0.789062 281.492188 L 45.808594 200.710938 L 138.527344 200.363281 " clip-rule="nonzero"/></clipPath><mask id="e72c400eea"><g filter="url(#b42df0e3f7)"><rect x="-37.5" width="450" fill="#000000" y="-37.499999" height="449.999989" fill-opacity="0.749"/></g></mask><clipPath id="50499b6e79"><path d="M 26 15 L 324 15 L 324 360 L 26 360 Z M 26 15 " clip-rule="nonzero"/></clipPath><clipPath id="c03a5fdfa4"><path d="M 1.097656 58.886719 L 149.0625 -28.496094 L 352.421875 315.855469 L 204.457031 403.238281 Z M 1.097656 58.886719 " clip-rule="nonzero"/></clipPath><clipPath id="9ca7cdc231"><path d="M 73.789062 15.957031 L 171.898438 16.074219 L 323.660156 273.0625 L 276.390625 359.035156 L 178.285156 358.917969 L 26.519531 101.929688 L 73.789062 15.957031 " clip-rule="nonzero"/></clipPath><clipPath id="5eb429a3eb"><rect x="0" width="325" y="0" height="375"/></clipPath></defs><g clip-path="url(#ccfb45c62f)"><g clip-path="url(#f5c2027f14)"><g clip-path="url(#483746079c)"><path fill="#085fce" d="M 69.105469 160.320312 L 207.945312 240.40625 L 114.753906 401.96875 L -24.085938 321.878906 Z M 69.105469 160.320312 " fill-opacity="1" fill-rule="nonzero"/></g></g></g><g mask="url(#e72c400eea)"><g transform="matrix(1, 0, 0, 1, 50, 0)"><g clip-path="url(#5eb429a3eb)"><g clip-path="url(#50499b6e79)"><g clip-path="url(#c03a5fdfa4)"><g clip-path="url(#9ca7cdc231)"><path fill="#085fce" d="M 1.097656 58.886719 L 146.371094 -26.90625 L 349.730469 317.445312 L 204.457031 403.238281 Z M 1.097656 58.886719 " fill-opacity="1" fill-rule="nonzero"/></g></g></g></g></g></g></svg>