<svg xmlns="http://www.w3.org/2000/svg" xmlns:xlink="http://www.w3.org/1999/xlink" width="900" zoomAndPan="magnify" viewBox="0 0 675 149.999998" height="200" preserveAspectRatio="xMidYMid meet" version="1.0"><defs><filter x="0%" y="0%" width="100%" height="100%" id="0c404387ed"><feColorMatrix values="0 0 0 0 1 0 0 0 0 1 0 0 0 0 1 0 0 0 1 0" color-interpolation-filters="sRGB"/></filter><g/><clipPath id="2cf0579d8e"><path d="M 5 77 L 49 77 L 49 116 L 5 116 Z M 5 77 " clip-rule="nonzero"/></clipPath><clipPath id="dd5b407081"><path d="M 21.609375 68.699219 L 53.804688 87.269531 L 32.195312 124.730469 L 0 106.160156 Z M 21.609375 68.699219 " clip-rule="nonzero"/></clipPath><clipPath id="e5150fbfd1"><path d="M 37.707031 77.984375 L 48.402344 96.632812 L 37.597656 115.363281 L 16.097656 115.445312 L 5.402344 96.792969 L 16.207031 78.0625 L 37.707031 77.984375 " clip-rule="nonzero"/></clipPath><mask id="68d79c1605"><g filter="url(#0c404387ed)"><rect x="-67.5" width="810" fill="#000000" y="-15" height="179.999997" fill-opacity="0.749"/></g></mask><clipPath id="a925b1e0c2"><path d="M 6 11 L 76 11 L 76 91 L 6 91 Z M 6 11 " clip-rule="nonzero"/></clipPath><clipPath id="75d86d9c52"><path d="M 0.433594 21.175781 L 34.742188 0.914062 L 81.898438 80.761719 L 47.589844 101.023438 Z M 0.433594 21.175781 " clip-rule="nonzero"/></clipPath><clipPath id="374f5cb5e4"><path d="M 17.289062 11.222656 L 40.039062 11.25 L 75.230469 70.839844 L 64.269531 90.773438 L 41.519531 90.746094 L 6.328125 31.15625 L 17.289062 11.222656 " clip-rule="nonzero"/></clipPath><clipPath id="f9b8f5ec30"><rect x="0" width="83" y="0" height="102"/></clipPath><clipPath id="61fac2fb7f"><path d="M 100 34 L 144 34 L 144 73 L 100 73 Z M 100 34 " clip-rule="nonzero"/></clipPath><clipPath id="f8161be109"><path d="M 116.859375 25.269531 L 149.054688 43.839844 L 127.445312 81.304688 L 95.25 62.734375 Z M 116.859375 25.269531 " clip-rule="nonzero"/></clipPath><clipPath id="ee37597335"><path d="M 132.957031 34.554688 L 143.652344 53.207031 L 132.847656 71.9375 L 111.347656 72.019531 L 100.652344 53.367188 L 111.457031 34.636719 L 132.957031 34.554688 " clip-rule="nonzero"/></clipPath><mask id="16457b5d3e"><g filter="url(#0c404387ed)"><rect x="-67.5" width="810" fill="#000000" y="-15" height="179.999997" fill-opacity="0.749"/></g></mask><clipPath id="5a26ff1da2"><path d="M 6 11 L 76 11 L 76 91 L 6 91 Z M 6 11 " clip-rule="nonzero"/></clipPath><clipPath id="bfed289bca"><path d="M 0.476562 21.175781 L 34.789062 0.914062 L 81.941406 80.761719 L 47.632812 101.023438 Z M 0.476562 21.175781 " clip-rule="nonzero"/></clipPath><clipPath id="4ad79c8121"><path d="M 17.332031 11.222656 L 40.082031 11.25 L 75.273438 70.839844 L 64.3125 90.773438 L 41.5625 90.746094 L 6.371094 31.15625 L 17.332031 11.222656 " clip-rule="nonzero"/></clipPath><clipPath id="1e80bb32c8"><rect x="0" width="82" y="0" height="102"/></clipPath></defs><g clip-path="url(#2cf0579d8e)"><g clip-path="url(#dd5b407081)"><g clip-path="url(#e5150fbfd1)"><path fill="#085fce" d="M 21.609375 68.699219 L 53.804688 87.269531 L 32.195312 124.730469 L 0 106.160156 Z M 21.609375 68.699219 " fill-opacity="1" fill-rule="nonzero"/></g></g></g><g mask="url(#68d79c1605)"><g transform="matrix(1, 0, 0, 1, 17, 24)"><g clip-path="url(#f9b8f5ec30)"><g clip-path="url(#a925b1e0c2)"><g clip-path="url(#75d86d9c52)"><g clip-path="url(#374f5cb5e4)"><path fill="#085fce" d="M 0.433594 21.175781 L 34.117188 1.28125 L 81.273438 81.132812 L 47.589844 101.023438 Z M 0.433594 21.175781 " fill-opacity="1" fill-rule="nonzero"/></g></g></g></g></g></g><g clip-path="url(#61fac2fb7f)"><g clip-path="url(#f8161be109)"><g clip-path="url(#ee37597335)"><path fill="#085fce" d="M 116.859375 25.269531 L 149.054688 43.839844 L 127.445312 81.304688 L 95.25 62.734375 Z M 116.859375 25.269531 " fill-opacity="1" fill-rule="nonzero"/></g></g></g><g mask="url(#16457b5d3e)"><g transform="matrix(1, 0, 0, 1, 51, 24)"><g clip-path="url(#1e80bb32c8)"><g clip-path="url(#5a26ff1da2)"><g clip-path="url(#bfed289bca)"><g clip-path="url(#4ad79c8121)"><path fill="#085fce" d="M 0.476562 21.175781 L 34.164062 1.28125 L 81.320312 81.132812 L 47.632812 101.023438 Z M 0.476562 21.175781 " fill-opacity="1" fill-rule="nonzero"/></g></g></g></g></g></g><g fill="#000000" fill-opacity="1"><g transform="translate(269.382559, 107.984373)"><g><path d="M 48.828125 3.296875 L 39.46875 -23.671875 L 34.234375 -9.09375 L 30.296875 2.015625 L 29.921875 2.9375 L 29.09375 3.296875 C 27.5 4.160156 25.785156 4.648438 23.953125 4.765625 L 22.21875 4.859375 L 21.65625 3.296875 L 5.140625 -39.375 L -0.734375 -40.9375 L -2.203125 -41.296875 L -2.46875 -42.765625 C -2.71875 -44.421875 -2.472656 -45.953125 -1.734375 -47.359375 L -1.09375 -48.734375 L 0.375 -48.640625 C 2.207031 -48.515625 3.84375 -48.421875 5.28125 -48.359375 C 6.71875 -48.304688 7.957031 -48.265625 9 -48.234375 C 10.039062 -48.203125 10.863281 -48.1875 11.46875 -48.1875 C 13.425781 -48.1875 17.253906 -48.335938 22.953125 -48.640625 L 24.96875 -48.734375 L 25.328125 -46.71875 C 25.578125 -45.1875 25.488281 -43.78125 25.0625 -42.5 L 24.6875 -41.203125 L 23.3125 -40.9375 C 21.71875 -40.570312 20.429688 -40.234375 19.453125 -39.921875 L 25.515625 -22.859375 C 26.128906 -21.015625 26.742188 -19.144531 27.359375 -17.25 C 27.898438 -19.269531 28.476562 -21.046875 29.09375 -22.578125 L 34.609375 -37.453125 L 34.046875 -39.375 L 28.171875 -40.9375 L 26.703125 -41.296875 L 26.4375 -42.765625 C 26.375 -43.378906 26.34375 -43.992188 26.34375 -44.609375 C 26.40625 -45.097656 26.492188 -45.570312 26.609375 -46.03125 C 26.734375 -46.488281 26.921875 -46.929688 27.171875 -47.359375 L 27.8125 -48.734375 L 29.375 -48.640625 C 34.019531 -48.335938 37.597656 -48.1875 40.109375 -48.1875 C 41.390625 -48.1875 42.898438 -48.21875 44.640625 -48.28125 C 46.390625 -48.34375 48.335938 -48.460938 50.484375 -48.640625 L 52.59375 -48.828125 L 52.953125 -46.71875 C 53.203125 -45.1875 53.113281 -43.78125 52.6875 -42.5 L 52.21875 -41.125 L 50.9375 -40.84375 C 50.144531 -40.71875 49.394531 -40.578125 48.6875 -40.421875 C 47.988281 -40.273438 47.425781 -40.109375 47 -39.921875 L 52.5 -21.9375 C 53.175781 -19.851562 53.757812 -17.957031 54.25 -16.25 C 54.738281 -17.832031 55.257812 -19.515625 55.8125 -21.296875 L 61.59375 -39.65625 L 56.90625 -40.9375 L 55.4375 -41.296875 L 55.15625 -42.765625 C 55.101562 -43.441406 55.101562 -44.117188 55.15625 -44.796875 C 55.21875 -45.710938 55.460938 -46.566406 55.890625 -47.359375 L 56.546875 -48.734375 L 58.09375 -48.640625 C 60.050781 -48.460938 61.78125 -48.34375 63.28125 -48.28125 C 64.78125 -48.21875 66.050781 -48.1875 67.09375 -48.1875 C 69.050781 -48.1875 72.234375 -48.335938 76.640625 -48.640625 L 78.75 -48.828125 L 79.125 -46.71875 C 79.363281 -45.1875 79.269531 -43.78125 78.84375 -42.5 L 78.390625 -41.125 L 77 -40.84375 C 74.738281 -40.476562 73.054688 -40.082031 71.953125 -39.65625 L 61.5 -9.265625 L 57.640625 2.015625 L 57.265625 2.9375 L 56.546875 3.296875 C 56.234375 3.484375 55.9375 3.640625 55.65625 3.765625 C 55.382812 3.890625 55.097656 3.992188 54.796875 4.078125 C 54.492188 4.171875 54.203125 4.265625 53.921875 4.359375 C 53.648438 4.453125 53.359375 4.53125 53.046875 4.59375 C 52.742188 4.65625 52.4375 4.710938 52.125 4.765625 C 51.820312 4.828125 51.519531 4.859375 51.21875 4.859375 L 49.46875 4.953125 Z M 48.828125 3.296875 "/></g></g></g><g fill="#000000" fill-opacity="1"><g transform="translate(347.115094, 107.984373)"><g><path d="M 15.421875 -22.484375 C 15.484375 -17.097656 16.582031 -12.9375 18.71875 -10 C 20.738281 -7.1875 23.492188 -5.78125 26.984375 -5.78125 C 29.492188 -5.78125 31.46875 -6.007812 32.90625 -6.46875 C 34.34375 -6.925781 36.222656 -7.953125 38.546875 -9.546875 L 39.5625 -10.1875 L 40.75 -9.734375 C 41.539062 -9.359375 42.210938 -8.816406 42.765625 -8.109375 C 43.316406 -7.410156 43.65625 -6.601562 43.78125 -5.6875 L 43.875 -4.6875 L 43.140625 -3.859375 C 42.035156 -2.628906 40.835938 -1.539062 39.546875 -0.59375 C 38.265625 0.351562 36.9375 1.160156 35.5625 1.828125 C 34.1875 2.503906 32.765625 3.007812 31.296875 3.34375 C 29.828125 3.6875 28.296875 3.859375 26.703125 3.859375 C 18.992188 3.859375 12.816406 1.410156 8.171875 -3.484375 C 3.515625 -8.316406 1.15625 -14.800781 1.09375 -22.9375 C 1.15625 -31.320312 3.601562 -37.882812 8.4375 -42.625 C 13.269531 -47.375 19.207031 -49.75 26.25 -49.75 C 32.1875 -49.75 36.742188 -47.695312 39.921875 -43.59375 C 42.984375 -39.675781 44.515625 -34.445312 44.515625 -27.90625 C 44.515625 -26.800781 44.484375 -25.910156 44.421875 -25.234375 L 44.328125 -24.328125 L 43.5 -23.671875 L 42.21875 -22.671875 L 41.671875 -22.21875 L 40.84375 -22.21875 Z M 26.15625 -41.203125 C 23.957031 -41.203125 21.878906 -40.132812 19.921875 -38 C 18.328125 -36.28125 17.132812 -33.953125 16.34375 -31.015625 L 31.203125 -31.84375 C 31.023438 -35.269531 30.566406 -37.71875 29.828125 -39.1875 C 29.460938 -39.925781 29.019531 -40.445312 28.5 -40.75 C 27.976562 -41.050781 27.195312 -41.203125 26.15625 -41.203125 Z M 26.15625 -41.203125 "/></g></g></g><g fill="#000000" fill-opacity="1"><g transform="translate(393.920019, 107.984373)"><g><path d="M 17.8125 -68.375 L 17.8125 -45.53125 C 21.476562 -47.914062 25.453125 -49.109375 29.734375 -49.109375 C 36.460938 -49.046875 41.785156 -46.566406 45.703125 -41.671875 C 49.441406 -36.953125 51.3125 -30.679688 51.3125 -22.859375 C 51.3125 -14.347656 48.800781 -7.707031 43.78125 -2.9375 C 38.820312 1.769531 32.304688 4.125 24.234375 4.125 C 17.742188 4.007812 11.65625 2.785156 5.96875 0.453125 L 4.5 -0.09375 L 4.5 -60.84375 L -1 -61.40625 L -2.84375 -61.578125 L -3.125 -63.328125 C -3.363281 -65.046875 -3.117188 -66.609375 -2.390625 -68.015625 L -1.828125 -69.015625 L -0.734375 -69.203125 C 3.304688 -69.816406 7.316406 -70.613281 11.296875 -71.59375 L 11.5625 -71.6875 L 11.9375 -71.6875 C 13.40625 -71.625 14.929688 -71.222656 16.515625 -70.484375 L 17.8125 -69.84375 Z M 18.265625 -35.15625 L 18.265625 -5.421875 C 20.347656 -4.554688 22.644531 -4.125 25.15625 -4.125 C 28.695312 -4.125 31.476562 -5.65625 33.5 -8.71875 C 35.757812 -12.019531 36.890625 -16.734375 36.890625 -22.859375 C 36.890625 -28.359375 35.914062 -32.515625 33.96875 -35.328125 C 32.125 -37.835938 29.796875 -39.09375 26.984375 -39.09375 C 25.273438 -39.09375 23.5 -38.601562 21.65625 -37.625 C 20.1875 -36.832031 19.054688 -36.007812 18.265625 -35.15625 Z M 18.265625 -35.15625 "/></g></g></g><g fill="#000000" fill-opacity="1"><g transform="translate(447.791483, 107.984373)"><g><path d="M 11.46875 -13.953125 L 12.296875 -5.59375 C 13.523438 -5.101562 15.085938 -4.800781 16.984375 -4.6875 C 17.410156 -4.6875 17.898438 -4.6875 18.453125 -4.6875 C 20.710938 -4.6875 22.578125 -5.144531 24.046875 -6.0625 C 24.660156 -6.425781 25.101562 -6.867188 25.375 -7.390625 C 25.65625 -7.910156 25.796875 -8.566406 25.796875 -9.359375 C 25.796875 -10.703125 25.148438 -11.925781 23.859375 -13.03125 C 22.148438 -14.5 19.15625 -16.210938 14.875 -18.171875 C 10.707031 -20.128906 7.613281 -22.363281 5.59375 -24.875 C 3.457031 -27.5625 2.390625 -30.957031 2.390625 -35.0625 C 2.390625 -40.019531 4.222656 -43.78125 7.890625 -46.34375 C 11.253906 -48.675781 15.597656 -49.84375 20.921875 -49.84375 C 21.347656 -49.84375 21.78125 -49.84375 22.21875 -49.84375 C 26.738281 -49.65625 31.050781 -48.734375 35.15625 -47.078125 L 36.625 -46.53125 L 36.625 -44.96875 C 36.625 -44.789062 36.625 -44.515625 36.625 -44.140625 C 36.6875 -43.648438 36.71875 -43.253906 36.71875 -42.953125 C 36.71875 -40.992188 36.5625 -39.082031 36.25 -37.21875 C 35.945312 -35.351562 35.488281 -33.503906 34.875 -31.671875 L 34.421875 -30.375 L 33.140625 -30.109375 C 32.765625 -30.046875 32.4375 -30 32.15625 -29.96875 C 31.882812 -29.9375 31.597656 -29.921875 31.296875 -29.921875 C 30.078125 -29.921875 28.882812 -30.164062 27.71875 -30.65625 L 26.4375 -31.109375 L 26.25 -32.40625 L 25.0625 -40.84375 C 24.570312 -40.90625 24.09375 -40.96875 23.625 -41.03125 C 23.164062 -41.09375 22.722656 -41.148438 22.296875 -41.203125 C 21.929688 -41.203125 21.566406 -41.203125 21.203125 -41.203125 C 19.117188 -41.203125 17.4375 -40.804688 16.15625 -40.015625 C 15.175781 -39.398438 14.65625 -38.359375 14.59375 -36.890625 C 14.59375 -35.421875 15.113281 -34.195312 16.15625 -33.21875 C 17.5 -31.9375 20.191406 -30.347656 24.234375 -28.453125 C 29.429688 -25.878906 33.101562 -23.429688 35.25 -21.109375 C 36.46875 -19.828125 37.367188 -18.375 37.953125 -16.75 C 38.535156 -15.125 38.828125 -13.363281 38.828125 -11.46875 C 38.828125 -6.507812 36.898438 -2.625 33.046875 0.1875 C 29.429688 2.8125 24.78125 4.125 19.09375 4.125 C 18.238281 4.125 17.410156 4.125 16.609375 4.125 C 10.859375 3.882812 6.085938 2.539062 2.296875 0.09375 L 1.28125 -0.640625 L 1.28125 -3.390625 C 1.21875 -7.492188 1.800781 -11.320312 3.03125 -14.875 L 3.484375 -16.15625 L 4.859375 -16.421875 C 5.347656 -16.484375 5.78125 -16.515625 6.15625 -16.515625 C 7.5 -16.515625 8.75 -16.332031 9.90625 -15.96875 L 11.296875 -15.515625 Z M 11.46875 -13.953125 "/></g></g></g><g fill="#000000" fill-opacity="1"><g transform="translate(488.814698, 107.984373)"><g><path d="M 18.90625 3.765625 C 14.8125 3.765625 11.660156 2.539062 9.453125 0.09375 C 8.347656 -1.1875 7.535156 -2.742188 7.015625 -4.578125 C 6.503906 -6.421875 6.25 -8.535156 6.25 -10.921875 L 6.25 -37.90625 L 0.734375 -37.90625 L 0.09375 -39.09375 C -0.394531 -40.007812 -0.671875 -41.019531 -0.734375 -42.125 C -0.796875 -42.550781 -0.8125 -42.976562 -0.78125 -43.40625 C -0.75 -43.84375 -0.703125 -44.304688 -0.640625 -44.796875 L -0.265625 -46.625 L 1.65625 -46.625 C 4.46875 -46.5625 6.300781 -47.019531 7.15625 -48 C 8.257812 -49.101562 9.363281 -51.796875 10.46875 -56.078125 L 10.828125 -57.828125 L 19.828125 -57.828125 L 19.828125 -47.546875 L 28.640625 -47.546875 L 29.28125 -46.25 C 29.832031 -45.09375 30.109375 -43.898438 30.109375 -42.671875 C 30.109375 -41.453125 29.800781 -40.257812 29.1875 -39.09375 L 28.546875 -37.90625 L 19.828125 -37.90625 L 19.828125 -13.21875 C 19.828125 -9.488281 20.070312 -7.101562 20.5625 -6.0625 C 20.800781 -5.632812 21.320312 -5.421875 22.125 -5.421875 C 22.613281 -5.421875 23.222656 -5.539062 23.953125 -5.78125 C 24.691406 -6.03125 25.550781 -6.425781 26.53125 -6.96875 L 27.71875 -7.625 L 28.90625 -6.890625 C 29.945312 -6.210938 30.65625 -5.257812 31.03125 -4.03125 C 31.144531 -3.488281 31.234375 -2.910156 31.296875 -2.296875 L 31.296875 -1.375 L 30.75 -0.734375 C 30.445312 -0.367188 30.125 -0.0507812 29.78125 0.21875 C 29.445312 0.5 29.082031 0.773438 28.6875 1.046875 C 28.289062 1.328125 27.875 1.570312 27.4375 1.78125 C 27.007812 2 26.519531 2.234375 25.96875 2.484375 C 23.894531 3.335938 21.539062 3.765625 18.90625 3.765625 Z M 18.90625 3.765625 "/></g></g></g><g fill="#000000" fill-opacity="1"><g transform="translate(519.834601, 107.984373)"><g><path d="M 1.015625 -22.9375 C 1.015625 -31.195312 3.472656 -37.789062 8.390625 -42.71875 C 13.316406 -47.644531 19.332031 -50.078125 26.4375 -50.015625 C 34.207031 -50.015625 40.414062 -47.414062 45.0625 -42.21875 C 49.59375 -37.019531 51.859375 -30.59375 51.859375 -22.9375 C 51.859375 -14.5625 49.425781 -7.941406 44.5625 -3.078125 C 39.695312 1.785156 33.65625 4.1875 26.4375 4.125 C 18.476562 4.125 12.234375 1.492188 7.703125 -3.765625 C 3.242188 -8.898438 1.015625 -15.289062 1.015625 -22.9375 Z M 37.359375 -21.65625 C 37.472656 -27.101562 36.523438 -31.90625 34.515625 -36.0625 C 32.671875 -39.675781 29.914062 -41.484375 26.25 -41.484375 C 22.632812 -41.484375 20.003906 -39.921875 18.359375 -36.796875 C 16.398438 -33.191406 15.453125 -28.359375 15.515625 -22.296875 C 15.515625 -19.671875 15.757812 -17.195312 16.25 -14.875 C 16.425781 -14.132812 16.617188 -13.425781 16.828125 -12.75 C 17.046875 -12.082031 17.273438 -11.457031 17.515625 -10.875 C 17.765625 -10.289062 18.046875 -9.722656 18.359375 -9.171875 C 18.722656 -8.628906 19.070312 -8.140625 19.40625 -7.703125 C 19.75 -7.273438 20.117188 -6.894531 20.515625 -6.5625 C 20.910156 -6.226562 21.351562 -5.90625 21.84375 -5.59375 C 23.125 -4.800781 24.710938 -4.40625 26.609375 -4.40625 C 28.203125 -4.40625 29.609375 -4.695312 30.828125 -5.28125 C 32.054688 -5.863281 33.160156 -6.796875 34.140625 -8.078125 C 36.285156 -10.828125 37.359375 -15.351562 37.359375 -21.65625 Z M 37.359375 -21.65625 "/></g></g></g><g fill="#000000" fill-opacity="1"><g transform="translate(574.073145, 107.984373)"><g><path d="M 20.84375 -30.46875 L 20.84375 -6.421875 L 27.90625 -4.953125 L 29.46875 -4.6875 L 29.734375 -3.125 C 29.796875 -2.570312 29.828125 -2.050781 29.828125 -1.5625 C 29.765625 -0.457031 29.488281 0.550781 29 1.46875 L 28.359375 2.84375 L 26.890625 2.75 C 21.390625 2.445312 17.078125 2.296875 13.953125 2.296875 C 11.566406 2.296875 7.894531 2.445312 2.9375 2.75 L 0.828125 2.84375 L 0.453125 0.828125 C 0.210938 -0.703125 0.304688 -2.109375 0.734375 -3.390625 L 1.109375 -4.6875 L 2.484375 -4.953125 C 4.441406 -5.378906 5.96875 -5.78125 7.0625 -6.15625 L 7.0625 -38.265625 L 1.5625 -38.828125 L -0.265625 -39 L -0.546875 -40.75 C -0.671875 -41.539062 -0.671875 -42.347656 -0.546875 -43.171875 C -0.421875 -44.003906 -0.175781 -44.757812 0.1875 -45.4375 L 0.734375 -46.4375 L 1.84375 -46.625 C 6.851562 -47.351562 11.070312 -48.148438 14.5 -49.015625 L 14.78125 -49.109375 L 15.046875 -49.109375 C 16.085938 -49.109375 17.4375 -48.675781 19.09375 -47.8125 L 20.375 -47.171875 L 20.375 -43.875 C 24.164062 -47.789062 28.082031 -49.75 32.125 -49.75 C 35 -49.8125 37.414062 -49.226562 39.375 -48 L 40.390625 -47.359375 L 40.484375 -46.171875 C 40.597656 -43.785156 40.488281 -41.378906 40.15625 -38.953125 C 39.820312 -36.535156 39.285156 -34.109375 38.546875 -31.671875 L 38.09375 -30.203125 L 36.625 -30.015625 C 34.726562 -29.765625 33.015625 -29.914062 31.484375 -30.46875 L 30.109375 -30.9375 L 29.921875 -32.40625 L 29 -39.28125 C 28.269531 -39.09375 27.582031 -38.816406 26.9375 -38.453125 C 26.289062 -38.085938 25.664062 -37.597656 25.0625 -36.984375 C 23.53125 -35.453125 22.125 -33.28125 20.84375 -30.46875 Z M 20.84375 -30.46875 "/></g></g></g><g fill="#000000" fill-opacity="1"><g transform="translate(615.004586, 107.984373)"><g><path d="M 15.421875 -22.484375 C 15.484375 -17.097656 16.582031 -12.9375 18.71875 -10 C 20.738281 -7.1875 23.492188 -5.78125 26.984375 -5.78125 C 29.492188 -5.78125 31.46875 -6.007812 32.90625 -6.46875 C 34.34375 -6.925781 36.222656 -7.953125 38.546875 -9.546875 L 39.5625 -10.1875 L 40.75 -9.734375 C 41.539062 -9.359375 42.210938 -8.816406 42.765625 -8.109375 C 43.316406 -7.410156 43.65625 -6.601562 43.78125 -5.6875 L 43.875 -4.6875 L 43.140625 -3.859375 C 42.035156 -2.628906 40.835938 -1.539062 39.546875 -0.59375 C 38.265625 0.351562 36.9375 1.160156 35.5625 1.828125 C 34.1875 2.503906 32.765625 3.007812 31.296875 3.34375 C 29.828125 3.6875 28.296875 3.859375 26.703125 3.859375 C 18.992188 3.859375 12.816406 1.410156 8.171875 -3.484375 C 3.515625 -8.316406 1.15625 -14.800781 1.09375 -22.9375 C 1.15625 -31.320312 3.601562 -37.882812 8.4375 -42.625 C 13.269531 -47.375 19.207031 -49.75 26.25 -49.75 C 32.1875 -49.75 36.742188 -47.695312 39.921875 -43.59375 C 42.984375 -39.675781 44.515625 -34.445312 44.515625 -27.90625 C 44.515625 -26.800781 44.484375 -25.910156 44.421875 -25.234375 L 44.328125 -24.328125 L 43.5 -23.671875 L 42.21875 -22.671875 L 41.671875 -22.21875 L 40.84375 -22.21875 Z M 26.15625 -41.203125 C 23.957031 -41.203125 21.878906 -40.132812 19.921875 -38 C 18.328125 -36.28125 17.132812 -33.953125 16.34375 -31.015625 L 31.203125 -31.84375 C 31.023438 -35.269531 30.566406 -37.71875 29.828125 -39.1875 C 29.460938 -39.925781 29.019531 -40.445312 28.5 -40.75 C 27.976562 -41.050781 27.195312 -41.203125 26.15625 -41.203125 Z M 26.15625 -41.203125 "/></g></g></g><g fill="#4686da" fill-opacity="1"><g transform="translate(162.513277, 107.984373)"><g><path d="M 14.21875 -11.015625 C 14.21875 -10.035156 14.328125 -9.222656 14.546875 -8.578125 C 14.765625 -7.941406 15.085938 -7.4375 15.515625 -7.0625 C 15.941406 -6.632812 16.457031 -6.3125 17.0625 -6.09375 C 17.675781 -5.882812 18.414062 -5.78125 19.28125 -5.78125 C 19.707031 -5.78125 20.148438 -5.828125 20.609375 -5.921875 C 21.066406 -6.015625 21.554688 -6.148438 22.078125 -6.328125 C 22.597656 -6.515625 23.128906 -6.757812 23.671875 -7.0625 C 24.347656 -7.4375 24.945312 -7.835938 25.46875 -8.265625 C 25.988281 -8.691406 26.429688 -9.085938 26.796875 -9.453125 L 26.796875 -18.8125 C 22.148438 -18.632812 18.878906 -17.992188 16.984375 -16.890625 C 15.140625 -15.847656 14.21875 -13.890625 14.21875 -11.015625 Z M 40.390625 -29.09375 L 40.390625 -6.0625 C 41.484375 -5.6875 43.007812 -5.285156 44.96875 -4.859375 L 46.53125 -4.59375 L 46.8125 -3.03125 C 46.925781 -2.226562 46.925781 -1.429688 46.8125 -0.640625 C 46.6875 0.148438 46.441406 0.882812 46.078125 1.5625 L 45.609375 2.5625 L 44.515625 2.84375 C 42.066406 3.269531 39.34375 3.484375 36.34375 3.484375 C 35.238281 3.484375 34.210938 3.4375 33.265625 3.34375 C 32.316406 3.257812 31.414062 3.09375 30.5625 2.84375 L 29.28125 2.5625 L 28.90625 1.1875 L 28.546875 -0.1875 C 24.867188 2.507812 20.613281 3.859375 15.78125 3.859375 C 11.320312 3.859375 7.679688 2.632812 4.859375 0.1875 C 1.921875 -2.320312 0.453125 -5.75 0.453125 -10.09375 C 0.515625 -15.726562 2.835938 -19.953125 7.421875 -22.765625 C 12.015625 -25.578125 18.472656 -27.015625 26.796875 -27.078125 L 26.890625 -32.859375 C 26.890625 -35.972656 26.429688 -38.15625 25.515625 -39.40625 C 24.597656 -40.664062 23.128906 -41.296875 21.109375 -41.296875 C 20.492188 -41.296875 19.878906 -41.28125 19.265625 -41.25 C 18.660156 -41.21875 18.082031 -41.175781 17.53125 -41.125 C 16.488281 -40.9375 15.507812 -40.71875 14.59375 -40.46875 L 13.578125 -32.21875 L 13.40625 -30.84375 L 12.015625 -30.28125 C 10.492188 -29.738281 8.8125 -29.585938 6.96875 -29.828125 L 5.421875 -30.015625 L 5.046875 -31.484375 C 3.703125 -36.378906 3.0625 -40.570312 3.125 -44.0625 L 3.125 -45.53125 L 4.40625 -46.171875 C 4.894531 -46.410156 5.414062 -46.632812 5.96875 -46.84375 C 6.519531 -47.0625 7.054688 -47.257812 7.578125 -47.4375 C 8.097656 -47.625 8.628906 -47.8125 9.171875 -48 C 9.722656 -48.1875 10.289062 -48.351562 10.875 -48.5 C 11.457031 -48.65625 12.035156 -48.796875 12.609375 -48.921875 C 13.191406 -49.046875 13.789062 -49.164062 14.40625 -49.28125 C 15.019531 -49.40625 15.632812 -49.5 16.25 -49.5625 C 18.570312 -49.863281 21.019531 -50.015625 23.59375 -50.015625 C 26.46875 -50.078125 29.003906 -49.707031 31.203125 -48.90625 C 33.410156 -48.113281 35.21875 -46.863281 36.625 -45.15625 C 39.132812 -41.976562 40.390625 -36.625 40.390625 -29.09375 Z M 40.390625 -29.09375 "/></g></g></g><g fill="#4686da" fill-opacity="1"><g transform="translate(209.409983, 107.984373)"><g><path d="M 19.453125 -46.34375 C 23.253906 -48.789062 27.203125 -50.015625 31.296875 -50.015625 C 37.910156 -49.953125 43.144531 -47.351562 47 -42.21875 C 47.726562 -41.238281 48.398438 -40.195312 49.015625 -39.09375 C 49.628906 -38 50.164062 -36.867188 50.625 -35.703125 C 51.082031 -34.535156 51.460938 -33.328125 51.765625 -32.078125 C 52.066406 -30.828125 52.296875 -29.539062 52.453125 -28.21875 C 52.609375 -26.90625 52.6875 -25.546875 52.6875 -24.140625 C 52.6875 -19.734375 52.117188 -15.785156 50.984375 -12.296875 C 49.847656 -8.804688 48.132812 -5.820312 45.84375 -3.34375 C 43.550781 -0.875 40.8125 0.96875 37.625 2.1875 C 34.445312 3.414062 30.867188 4.03125 26.890625 4.03125 C 24.628906 3.976562 22.273438 3.613281 19.828125 2.9375 L 19.828125 16.515625 L 26.0625 17.984375 L 27.53125 18.265625 L 27.8125 19.828125 C 27.875 20.378906 27.90625 20.898438 27.90625 21.390625 C 27.84375 22.484375 27.566406 23.488281 27.078125 24.40625 L 26.4375 25.796875 L 24.96875 25.703125 C 22.21875 25.515625 19.832031 25.390625 17.8125 25.328125 C 15.789062 25.265625 14.164062 25.234375 12.9375 25.234375 C 10.613281 25.234375 6.941406 25.390625 1.921875 25.703125 L -0.1875 25.796875 L -0.546875 23.765625 C -0.796875 22.242188 -0.703125 20.835938 -0.265625 19.546875 L 0.1875 18.265625 L 1.46875 17.984375 C 3.363281 17.554688 4.894531 17.160156 6.0625 16.796875 L 6.0625 -38.265625 L 0.640625 -38.828125 L -1.1875 -39 L -1.46875 -40.75 C -1.53125 -41.488281 -1.53125 -42.160156 -1.46875 -42.765625 C -1.40625 -43.742188 -1.160156 -44.632812 -0.734375 -45.4375 L -0.1875 -46.4375 L 1.015625 -46.625 C 3.578125 -46.925781 7.707031 -47.722656 13.40625 -49.015625 L 13.765625 -49.109375 L 14.140625 -49.109375 C 15.296875 -49.046875 16.578125 -48.738281 17.984375 -48.1875 L 19.453125 -47.640625 Z M 19.828125 -36.25 L 19.828125 -6.703125 C 22.023438 -5.410156 24.316406 -4.765625 26.703125 -4.765625 C 30.378906 -4.765625 33.195312 -6.265625 35.15625 -9.265625 C 37.289062 -12.515625 38.359375 -17.289062 38.359375 -23.59375 C 38.359375 -29.28125 37.410156 -33.5 35.515625 -36.25 C 33.867188 -38.695312 31.546875 -39.921875 28.546875 -39.921875 C 28.296875 -39.921875 28.0625 -39.921875 27.84375 -39.921875 C 27.632812 -39.921875 27.421875 -39.90625 27.203125 -39.875 C 26.992188 -39.84375 26.78125 -39.796875 26.5625 -39.734375 C 26.351562 -39.679688 26.125 -39.625 25.875 -39.5625 C 25.632812 -39.5 25.40625 -39.4375 25.1875 -39.375 C 24.976562 -39.3125 24.765625 -39.234375 24.546875 -39.140625 C 24.335938 -39.046875 24.109375 -38.953125 23.859375 -38.859375 C 23.617188 -38.773438 23.375 -38.671875 23.125 -38.546875 C 21.65625 -37.816406 20.554688 -37.050781 19.828125 -36.25 Z M 19.828125 -36.25 "/></g></g></g></svg>