<?xml version="1.0" standalone="no"?>
<!DOCTYPE svg PUBLIC "-//W3C//DTD SVG 1.1//EN" "http://www.w3.org/Graphics/SVG/1.1/DTD/svg11.dtd">
<svg xmlns="http://www.w3.org/2000/svg" xmlns:xlink="http://www.w3.org/1999/xlink" width="375" zoomAndPan="magnify" viewBox="0 0 375 236.249991" height="236.24998474121094" preserveAspectRatio="xMidYMid meet" version="1.0"><defs><clipPath id="ef760da65b"><path d="M 2 125 L 118 125 L 118 226 L 2 226 Z M 2 125 " clip-rule="nonzero"/></clipPath><clipPath id="a4439dcad0"><path d="M 45.5 100.835938 L 131.507812 150.449219 L 73.761719 250.558594 L -12.246094 200.945312 Z M 45.5 100.835938 " clip-rule="nonzero"/></clipPath><clipPath id="cff5f05c9d"><path d="M 45.503906 100.839844 L 131.503906 150.445312 L 73.757812 250.554688 L -12.238281 200.949219 Z M 45.503906 100.839844 " clip-rule="nonzero"/></clipPath><clipPath id="e63d4d8c7a"><path d="M 88.503906 125.644531 L 117.066406 175.472656 L 88.195312 225.527344 L 30.757812 225.753906 L 2.195312 175.921875 L 31.070312 125.867188 L 88.503906 125.644531 " clip-rule="nonzero"/></clipPath><clipPath id="d339e067fe"><path d="M 50 10 L 236 10 L 236 225 L 50 225 Z M 50 10 " clip-rule="nonzero"/></clipPath><clipPath id="c7e31a333a"><path d="M 34.300781 37.726562 L 125.402344 -16.078125 L 251.214844 196.964844 L 160.113281 250.765625 Z M 34.300781 37.726562 " clip-rule="nonzero"/></clipPath><clipPath id="7aba393462"><path d="M 34.304688 37.734375 L 127.027344 -17.027344 L 253.300781 196.792969 L 160.578125 251.550781 Z M 34.304688 37.734375 " clip-rule="nonzero"/></clipPath><clipPath id="13b2d3cea7"><path d="M 79.855469 10.832031 L 141.191406 10.660156 L 235.425781 170.230469 L 205.660156 223.855469 L 144.324219 224.03125 L 50.089844 64.460938 L 79.855469 10.832031 " clip-rule="nonzero"/></clipPath><clipPath id="0100aabd9e"><path d="M 257 9 L 373 9 L 373 110 L 257 110 Z M 257 9 " clip-rule="nonzero"/></clipPath><clipPath id="03314bfba6"><path d="M 301.085938 -15.691406 L 387.09375 33.921875 L 329.347656 134.03125 L 243.339844 84.417969 Z M 301.085938 -15.691406 " clip-rule="nonzero"/></clipPath><clipPath id="4afa94a7c4"><path d="M 301.089844 -15.6875 L 387.089844 33.917969 L 329.34375 134.027344 L 243.347656 84.421875 Z M 301.089844 -15.6875 " clip-rule="nonzero"/></clipPath><clipPath id="596ce1a9af"><path d="M 344.089844 9.117188 L 372.652344 58.945312 L 343.78125 109 L 286.34375 109.222656 L 257.78125 59.394531 L 286.65625 9.339844 L 344.089844 9.117188 " clip-rule="nonzero"/></clipPath><clipPath id="1ff3f497f7"><path d="M 141 10 L 327 10 L 327 225 L 141 225 Z M 141 10 " clip-rule="nonzero"/></clipPath><clipPath id="91ee0b2363"><path d="M 125.652344 37.726562 L 216.757812 -16.078125 L 342.566406 196.964844 L 251.464844 250.765625 Z M 125.652344 37.726562 " clip-rule="nonzero"/></clipPath><clipPath id="6f6cf6f4dc"><path d="M 125.65625 37.734375 L 218.382812 -17.027344 L 344.652344 196.792969 L 251.929688 251.550781 Z M 125.65625 37.734375 " clip-rule="nonzero"/></clipPath><clipPath id="19ff7f607a"><path d="M 171.210938 10.832031 L 232.542969 10.660156 L 326.78125 170.230469 L 297.011719 223.855469 L 235.675781 224.03125 L 141.441406 64.460938 L 171.210938 10.832031 " clip-rule="nonzero"/></clipPath></defs><g clip-path="url(#ef760da65b)"><g clip-path="url(#a4439dcad0)"><g clip-path="url(#cff5f05c9d)"><g clip-path="url(#e63d4d8c7a)"><path stroke-linecap="butt" transform="matrix(1.403867, 0.809791, -0.810108, 1.404417, 45.505473, 100.840908)" fill="none" stroke-linejoin="miter" d="M 30.628837 0.000472845 L 61.257099 17.819705 L 61.25811 53.460021 L 30.628773 71.28231 L -0.000692004 53.460991 L 0.000383955 17.819471 L 30.628837 0.000472845 " stroke="#f3f3f3" stroke-width="13.779122" stroke-opacity="1" stroke-miterlimit="4"/></g></g></g></g><g clip-path="url(#d339e067fe)"><g clip-path="url(#c7e31a333a)"><g clip-path="url(#7aba393462)"><g clip-path="url(#13b2d3cea7)"><path stroke-linecap="butt" transform="matrix(1.41176, -0.833723, 0.826097, 1.398847, 34.304962, 37.732594)" fill="none" stroke-linejoin="miter" d="M 32.265185 -0.000233312 L 64.530709 19.107391 L 64.530274 133.179872 L 32.266457 152.285538 L -0.000277638 133.179984 L 0.00015678 19.107503 L 32.265185 -0.000233312 " stroke="#f3f3f3" stroke-width="13.779122" stroke-opacity="1" stroke-miterlimit="4"/></g></g></g></g><g clip-path="url(#0100aabd9e)"><g clip-path="url(#03314bfba6)"><g clip-path="url(#4afa94a7c4)"><g clip-path="url(#596ce1a9af)"><path stroke-linecap="butt" transform="matrix(1.403867, 0.809791, -0.810108, 1.404417, 301.091708, -15.68744)" fill="none" stroke-linejoin="miter" d="M 30.628989 0.00110143 L 61.25725 17.820333 L 61.258261 53.46065 L 30.62772 71.280851 L -0.000540964 53.46162 L 0.000534995 17.820099 L 30.628989 0.00110143 " stroke="#f3f3f3" stroke-width="13.779122" stroke-opacity="1" stroke-miterlimit="4"/></g></g></g></g><g clip-path="url(#1ff3f497f7)"><g clip-path="url(#91ee0b2363)"><g clip-path="url(#6f6cf6f4dc)"><g clip-path="url(#19ff7f607a)"><path stroke-linecap="butt" transform="matrix(1.41176, -0.833723, 0.826097, 1.398847, 125.658152, 37.732594)" fill="none" stroke-linejoin="miter" d="M 32.266382 0.000480082 L 64.529854 19.106882 L 64.531471 133.180585 L 32.265603 152.285029 L -0.00113216 133.179475 L -0.000697738 19.106994 L 32.266382 0.000480082 " stroke="#f3f3f3" stroke-width="13.779122" stroke-opacity="1" stroke-miterlimit="4"/></g></g></g></g></svg>