<?xml version="1.0" standalone="no"?>
<!DOCTYPE svg PUBLIC "-//W3C//DTD SVG 1.1//EN" "http://www.w3.org/Graphics/SVG/1.1/DTD/svg11.dtd">
<svg xmlns="http://www.w3.org/2000/svg" xmlns:xlink="http://www.w3.org/1999/xlink" width="375" zoomAndPan="magnify" viewBox="0 0 375 236.249991" height="236.24998474121094" preserveAspectRatio="xMidYMid meet" version="1.0"><defs><filter x="0%" y="0%" width="100%" height="100%" id="id1"><feColorMatrix values="0 0 0 0 1 0 0 0 0 1 0 0 0 0 1 0 0 0 1 0" color-interpolation-filters="sRGB"/></filter><clipPath id="id2"><path d="M 2 125 L 118 125 L 118 226 L 2 226 Z M 2 125 " clip-rule="nonzero"/></clipPath><clipPath id="id3"><path d="M 45.40625 100.828125 L 131.472656 150.472656 L 73.6875 250.644531 L -12.378906 201 Z M 45.40625 100.828125 " clip-rule="nonzero"/></clipPath><clipPath id="id4"><path d="M 34 0 L 254 0 L 254 235.503906 L 34 235.503906 Z M 34 0 " clip-rule="nonzero"/></clipPath><mask id="id5"><g filter="url(#id1)"><rect x="-37.5" width="450" fill="#000000" y="-23.624999" height="283.499989" fill-opacity="0.749"/></g></mask><clipPath id="id6"><path d="M 16 10 L 202 10 L 202 225 L 16 225 Z M 16 10 " clip-rule="nonzero"/></clipPath><clipPath id="id7"><path d="M 0.199219 37.671875 L 91.363281 -16.164062 L 217.257812 197.015625 L 126.09375 250.851562 Z M 0.199219 37.671875 " clip-rule="nonzero"/></clipPath><clipPath id="id8"><rect x="0" width="220" y="0" height="236"/></clipPath><clipPath id="id9"><path d="M 257 9 L 373 9 L 373 110 L 257 110 Z M 257 9 " clip-rule="nonzero"/></clipPath><clipPath id="id10"><path d="M 301.160156 -15.777344 L 387.226562 33.867188 L 329.441406 134.039062 L 243.378906 84.394531 Z M 301.160156 -15.777344 " clip-rule="nonzero"/></clipPath><clipPath id="id11"><path d="M 125 0 L 345 0 L 345 235.503906 L 125 235.503906 Z M 125 0 " clip-rule="nonzero"/></clipPath><mask id="id12"><g filter="url(#id1)"><rect x="-37.5" width="450" fill="#000000" y="-23.624999" height="283.499989" fill-opacity="0.749"/></g></mask><clipPath id="id13"><path d="M 16 10 L 202 10 L 202 225 L 16 225 Z M 16 10 " clip-rule="nonzero"/></clipPath><clipPath id="id14"><path d="M 0.613281 37.671875 L 91.777344 -16.164062 L 217.671875 197.015625 L 126.507812 250.851562 Z M 0.613281 37.671875 " clip-rule="nonzero"/></clipPath><clipPath id="id15"><rect x="0" width="220" y="0" height="236"/></clipPath></defs><g clip-path="url(#id2)"><g clip-path="url(#id3)"><path fill="#d9d9d9" d="M 88.4375 125.648438 L 117.019531 175.511719 L 88.128906 225.597656 L 30.65625 225.824219 L 2.074219 175.960938 L 30.964844 125.875 L 88.4375 125.648438 " fill-opacity="1" fill-rule="nonzero"/></g></g><g clip-path="url(#id4)"><g mask="url(#id5)"><g transform="matrix(1, 0, 0, 1, 34, 0)"><g clip-path="url(#id8)"><g clip-path="url(#id6)"><g clip-path="url(#id7)"><path fill="#d9d9d9" d="M 45.785156 10.761719 L 107.160156 10.589844 L 201.457031 170.261719 L 171.671875 223.925781 L 110.296875 224.101562 L 16 64.425781 L 45.785156 10.761719 " fill-opacity="1" fill-rule="nonzero"/></g></g></g></g></g></g><g clip-path="url(#id9)"><g clip-path="url(#id10)"><path fill="#d9d9d9" d="M 344.195312 9.042969 L 372.773438 58.90625 L 343.882812 108.992188 L 286.410156 109.21875 L 257.828125 59.355469 L 286.722656 9.269531 L 344.195312 9.042969 " fill-opacity="1" fill-rule="nonzero"/></g></g><g clip-path="url(#id11)"><g mask="url(#id12)"><g transform="matrix(1, 0, 0, 1, 125, 0)"><g clip-path="url(#id15)"><g clip-path="url(#id13)"><g clip-path="url(#id14)"><path fill="#d9d9d9" d="M 46.199219 10.761719 L 107.574219 10.589844 L 201.871094 170.261719 L 172.085938 223.925781 L 110.707031 224.101562 L 16.410156 64.425781 L 46.199219 10.761719 " fill-opacity="1" fill-rule="nonzero"/></g></g></g></g></g></g></svg>