<svg xmlns="http://www.w3.org/2000/svg" xmlns:xlink="http://www.w3.org/1999/xlink" width="500" zoomAndPan="magnify" viewBox="0 0 375 374.999991" height="500" preserveAspectRatio="xMidYMid meet" version="1.0"><defs><clipPath id="0fa29949be"><path d="M 0 17.058594 L 223 17.058594 L 223 358.289062 L 0 358.289062 Z M 0 17.058594 " clip-rule="nonzero"/></clipPath><clipPath id="3cc950cc90"><path d="M 319 115 L 374.878906 115 L 374.878906 142 L 319 142 Z M 319 115 " clip-rule="nonzero"/></clipPath><clipPath id="eb6231a7cf"><path d="M 128.238281 97.457031 L 201.039062 97.457031 L 201.039062 173.804688 L 128.238281 173.804688 Z M 128.238281 97.457031 " clip-rule="nonzero"/></clipPath><clipPath id="17d2eb3d3a"><path d="M 145.488281 97.457031 L 183.769531 97.457031 C 188.34375 97.457031 192.730469 99.273438 195.964844 102.507812 C 199.203125 105.742188 201.019531 110.128906 201.019531 114.707031 L 201.019531 156.390625 C 201.019531 160.964844 199.203125 165.351562 195.964844 168.585938 C 192.730469 171.824219 188.34375 173.640625 183.769531 173.640625 L 145.488281 173.640625 C 140.914062 173.640625 136.527344 171.824219 133.292969 168.585938 C 130.058594 165.351562 128.238281 160.964844 128.238281 156.390625 L 128.238281 114.707031 C 128.238281 110.128906 130.058594 105.742188 133.292969 102.507812 C 136.527344 99.273438 140.914062 97.457031 145.488281 97.457031 " clip-rule="nonzero"/></clipPath><clipPath id="8d26119949"><path d="M 128.238281 193.726562 L 201.039062 193.726562 L 201.039062 270 L 128.238281 270 Z M 128.238281 193.726562 " clip-rule="nonzero"/></clipPath><clipPath id="05e2715511"><path d="M 145.488281 193.726562 L 183.769531 193.726562 C 188.34375 193.726562 192.730469 195.542969 195.964844 198.777344 C 199.203125 202.011719 201.019531 206.398438 201.019531 210.976562 L 201.019531 252.660156 C 201.019531 257.234375 199.203125 261.621094 195.964844 264.855469 C 192.730469 268.09375 188.34375 269.910156 183.769531 269.910156 L 145.488281 269.910156 C 140.914062 269.910156 136.527344 268.09375 133.292969 264.855469 C 130.058594 261.621094 128.238281 257.234375 128.238281 252.660156 L 128.238281 210.976562 C 128.238281 206.398438 130.058594 202.011719 133.292969 198.777344 C 136.527344 195.542969 140.914062 193.726562 145.488281 193.726562 " clip-rule="nonzero"/></clipPath><clipPath id="1ceceaa427"><path d="M 222.917969 192.976562 L 295.714844 192.976562 L 295.714844 269.324219 L 222.917969 269.324219 Z M 222.917969 192.976562 " clip-rule="nonzero"/></clipPath><clipPath id="c0b4fbd729"><path d="M 240.167969 192.976562 L 278.445312 192.976562 C 283.019531 192.976562 287.410156 194.792969 290.644531 198.027344 C 293.878906 201.261719 295.695312 205.648438 295.695312 210.226562 L 295.695312 251.910156 C 295.695312 256.484375 293.878906 260.871094 290.644531 264.105469 C 287.410156 267.34375 283.019531 269.160156 278.445312 269.160156 L 240.167969 269.160156 C 235.589844 269.160156 231.203125 267.34375 227.96875 264.105469 C 224.734375 260.871094 222.917969 256.484375 222.917969 251.910156 L 222.917969 210.226562 C 222.917969 205.648438 224.734375 201.261719 227.96875 198.027344 C 231.203125 194.792969 235.589844 192.976562 240.167969 192.976562 " clip-rule="nonzero"/></clipPath><clipPath id="fc1eb2a196"><path d="M 214 91 L 303 91 L 303 182 L 214 182 Z M 214 91 " clip-rule="nonzero"/></clipPath><clipPath id="85ab573093"><path d="M 207.914062 121.730469 L 270.757812 84.984375 L 309.296875 150.894531 L 246.453125 187.640625 Z M 207.914062 121.730469 " clip-rule="nonzero"/></clipPath><clipPath id="42c45111b0"><path d="M 222.804688 113.023438 L 255.851562 93.703125 C 259.800781 91.394531 264.503906 90.746094 268.929688 91.90625 C 273.355469 93.066406 277.140625 95.9375 279.449219 99.886719 L 300.488281 135.871094 C 302.800781 139.820312 303.445312 144.523438 302.285156 148.949219 C 301.125 153.375 298.253906 157.160156 294.304688 159.46875 L 261.261719 178.789062 C 257.3125 181.101562 252.605469 181.746094 248.183594 180.585938 C 243.757812 179.425781 239.972656 176.558594 237.664062 172.605469 L 216.621094 136.625 C 214.3125 132.675781 213.667969 127.96875 214.828125 123.542969 C 215.984375 119.117188 218.855469 115.335938 222.804688 113.023438 " clip-rule="nonzero"/></clipPath></defs><g clip-path="url(#0fa29949be)"><path fill="#085fce" d="M 129.125 342.070312 L 93.527344 342.070312 C 88.847656 342.070312 85.058594 338.292969 85.058594 333.640625 C 85.058594 328.953125 88.847656 325.164062 93.527344 325.164062 L 129.125 325.164062 C 133.804688 325.164062 137.589844 328.953125 137.589844 333.640625 C 137.589844 338.292969 133.804688 342.070312 129.125 342.070312 Z M 199.902344 299.46875 C 199.902344 304.699219 195.65625 308.960938 190.417969 308.960938 L 32.234375 308.960938 C 27.007812 308.960938 22.75 304.699219 22.75 299.46875 L 22.75 64.523438 C 22.75 59.292969 27.007812 55.03125 32.234375 55.03125 L 190.417969 55.03125 C 195.65625 55.03125 199.902344 59.292969 199.902344 64.523438 L 199.902344 82.960938 L 222.652344 82.960938 L 222.652344 39.839844 C 222.652344 27.269531 212.472656 17.070312 199.902344 17.070312 L 22.75 17.070312 C 10.191406 17.070312 0 27.269531 0 39.839844 L 0 335.519531 C 0 348.089844 10.191406 358.289062 22.75 358.289062 L 199.902344 358.289062 C 212.472656 358.289062 222.652344 348.089844 222.652344 335.519531 L 222.652344 281.03125 L 199.902344 281.03125 L 199.902344 299.46875 " fill-opacity="1" fill-rule="nonzero"/></g><path fill="#085fce" d="M 193.058594 198.167969 L 135.621094 198.167969 C 133.464844 198.167969 131.71875 199.914062 131.71875 202.074219 L 131.71875 257.589844 C 131.71875 259.738281 133.464844 261.496094 135.621094 261.496094 L 193.058594 261.496094 C 195.21875 261.496094 196.964844 259.738281 196.964844 257.589844 L 196.964844 202.074219 C 196.964844 199.914062 195.21875 198.167969 193.058594 198.167969 " fill-opacity="1" fill-rule="nonzero"/><path fill="#085fce" d="M 196.964844 106.402344 C 196.964844 104.242188 195.21875 102.496094 193.058594 102.496094 L 135.621094 102.496094 C 133.464844 102.496094 131.71875 104.242188 131.71875 106.402344 L 131.71875 165.859375 C 131.71875 168.007812 133.464844 169.765625 135.621094 169.765625 L 193.058594 169.765625 C 195.21875 169.765625 196.964844 168.007812 196.964844 165.859375 L 196.964844 106.402344 " fill-opacity="1" fill-rule="nonzero"/><path fill="#085fce" d="M 286.683594 196.195312 L 229.246094 198.167969 C 227.097656 198.167969 225.351562 199.914062 225.351562 202.074219 L 225.351562 257.589844 C 225.351562 259.738281 227.097656 261.496094 229.246094 261.496094 L 286.683594 261.496094 C 288.839844 261.496094 290.585938 259.738281 290.585938 257.589844 L 290.585938 200.101562 C 290.585938 197.941406 288.839844 196.195312 286.683594 196.195312 " fill-opacity="1" fill-rule="nonzero"/><path fill="#085fce" d="M 271.855469 93.925781 C 270.773438 92.0625 268.390625 91.425781 266.527344 92.5 L 216.789062 123.210938 C 214.914062 124.285156 214.277344 126.683594 215.363281 128.546875 L 244.082031 178.324219 C 245.15625 180.203125 247.539062 180.839844 249.402344 179.753906 L 299.148438 149.039062 C 301.011719 147.964844 301.648438 145.582031 300.574219 143.703125 L 271.855469 93.925781 " fill-opacity="1" fill-rule="nonzero"/><path fill="#085fce" d="M 346.3125 63.285156 C 350.890625 58.703125 350.890625 53.261719 346.3125 48.695312 C 341.738281 44.113281 334.332031 44.113281 329.753906 48.695312 L 306.203125 70.296875 C 301.625 74.875 301.625 82.289062 306.203125 86.867188 C 310.777344 91.4375 318.183594 91.4375 322.761719 86.867188 L 346.3125 63.285156 " fill-opacity="1" fill-rule="nonzero"/><path fill="#085fce" d="M 265.769531 73.082031 C 272.234375 73.082031 277.484375 67.828125 277.484375 61.359375 L 277.484375 34.011719 C 277.484375 27.542969 272.234375 22.289062 265.769531 22.289062 C 259.308594 22.289062 254.070312 27.542969 254.070312 34.011719 L 254.070312 61.359375 C 254.070312 67.828125 259.308594 73.082031 265.769531 73.082031 " fill-opacity="1" fill-rule="nonzero"/><g clip-path="url(#3cc950cc90)"><path fill="#085fce" d="M 363.167969 117.582031 L 331.675781 115.609375 C 325.214844 115.609375 319.976562 120.851562 319.976562 127.320312 C 319.976562 133.789062 325.214844 139.042969 331.675781 139.042969 L 363.167969 141.011719 C 369.632812 141.011719 374.867188 135.773438 374.867188 129.292969 C 374.867188 122.824219 369.632812 117.582031 363.167969 117.582031 " fill-opacity="1" fill-rule="nonzero"/></g><g clip-path="url(#eb6231a7cf)"><g clip-path="url(#17d2eb3d3a)"><path fill="#7157f2" d="M 128.238281 97.457031 L 201.039062 97.457031 L 201.039062 173.804688 L 128.238281 173.804688 Z M 128.238281 97.457031 " fill-opacity="1" fill-rule="nonzero"/></g></g><g clip-path="url(#8d26119949)"><g clip-path="url(#05e2715511)"><path fill="#7157f2" d="M 128.238281 193.726562 L 201.039062 193.726562 L 201.039062 270.074219 L 128.238281 270.074219 Z M 128.238281 193.726562 " fill-opacity="1" fill-rule="nonzero"/></g></g><g clip-path="url(#1ceceaa427)"><g clip-path="url(#c0b4fbd729)"><path fill="#7157f2" d="M 222.917969 192.976562 L 295.714844 192.976562 L 295.714844 269.324219 L 222.917969 269.324219 Z M 222.917969 192.976562 " fill-opacity="1" fill-rule="nonzero"/></g></g><g clip-path="url(#fc1eb2a196)"><g clip-path="url(#85ab573093)"><g clip-path="url(#42c45111b0)"><path fill="#7157f2" d="M 207.914062 121.730469 L 270.757812 84.984375 L 309.296875 150.894531 L 246.453125 187.640625 Z M 207.914062 121.730469 " fill-opacity="1" fill-rule="nonzero"/></g></g></g></svg>