<svg xmlns="http://www.w3.org/2000/svg" xmlns:xlink="http://www.w3.org/1999/xlink" width="500" zoomAndPan="magnify" viewBox="0 0 375 374.999991" height="500" preserveAspectRatio="xMidYMid meet" version="1.0"><defs><clipPath id="865124120c"><path d="M 0 31.515625 L 375 31.515625 L 375 285.765625 L 0 285.765625 Z M 0 31.515625 " clip-rule="nonzero"/></clipPath><clipPath id="7d80a2a2ea"><path d="M 113.855469 326.324219 L 261.386719 326.324219 L 261.386719 344 L 113.855469 344 Z M 113.855469 326.324219 " clip-rule="nonzero"/></clipPath><clipPath id="ad434e38e0"><path d="M 122.433594 326.324219 L 252.566406 326.324219 C 257.304688 326.324219 261.144531 330.164062 261.144531 334.902344 C 261.144531 339.640625 257.304688 343.484375 252.566406 343.484375 L 122.433594 343.484375 C 117.695312 343.484375 113.855469 339.640625 113.855469 334.902344 C 113.855469 330.164062 117.695312 326.324219 122.433594 326.324219 " clip-rule="nonzero"/></clipPath><clipPath id="75e0262c08"><path d="M 132 269 L 168 269 L 168 340 L 132 340 Z M 132 269 " clip-rule="nonzero"/></clipPath><clipPath id="0086a8ca71"><path d="M 130.394531 335.902344 L 152.914062 267.4375 L 171.28125 273.480469 L 148.761719 341.941406 Z M 130.394531 335.902344 " clip-rule="nonzero"/></clipPath><clipPath id="82ba55ba18"><path d="M 133.214844 327.332031 L 150.085938 276.039062 C 151.640625 271.304688 156.738281 268.730469 161.472656 270.285156 C 166.207031 271.84375 168.78125 276.941406 167.222656 281.675781 L 150.351562 332.96875 C 148.792969 337.703125 143.695312 340.277344 138.964844 338.71875 C 134.230469 337.164062 131.65625 332.066406 133.214844 327.332031 " clip-rule="nonzero"/></clipPath><clipPath id="2f8da6f6c5"><path d="M 207 268 L 244 268 L 244 340 L 207 340 Z M 207 268 " clip-rule="nonzero"/></clipPath><clipPath id="d9909715f2"><path d="M 219.457031 266.683594 L 246.035156 337.441406 L 231.222656 343.003906 L 204.648438 272.246094 Z M 219.457031 266.683594 " clip-rule="nonzero"/></clipPath><clipPath id="0f5a8f0b17"><path d="M 222.140625 273.828125 L 242.875 329.03125 C 243.585938 330.925781 243.515625 333.027344 242.679688 334.871094 C 241.84375 336.710938 240.308594 338.148438 238.414062 338.859375 C 236.519531 339.570312 234.417969 339.5 232.574219 338.664062 C 230.730469 337.828125 229.296875 336.292969 228.585938 334.398438 L 207.851562 279.195312 C 207.140625 277.300781 207.210938 275.199219 208.046875 273.355469 C 208.882812 271.511719 210.417969 270.078125 212.3125 269.367188 C 214.207031 268.65625 216.308594 268.726562 218.152344 269.5625 C 219.996094 270.398438 221.429688 271.933594 222.140625 273.828125 " clip-rule="nonzero"/></clipPath></defs><g clip-path="url(#865124120c)"><path fill="#2196f3" d="M 352.890625 263.714844 L 22.039062 263.714844 L 22.039062 75.496094 L 352.890625 75.496094 Z M 50.832031 41.679688 C 57.347656 41.679688 62.648438 46.96875 62.648438 53.496094 C 62.648438 60.007812 57.347656 65.296875 50.832031 65.296875 C 44.304688 65.296875 39.007812 60.007812 39.007812 53.496094 C 39.007812 46.96875 44.304688 41.679688 50.832031 41.679688 Z M 86.488281 41.679688 C 93.019531 41.679688 98.316406 46.96875 98.316406 53.496094 C 98.316406 60.007812 93.019531 65.296875 86.488281 65.296875 C 79.96875 65.296875 74.675781 60.007812 74.675781 53.496094 C 74.675781 46.96875 79.96875 41.679688 86.488281 41.679688 Z M 122.160156 41.679688 C 128.6875 41.679688 133.972656 46.96875 133.972656 53.496094 C 133.972656 60.007812 128.6875 65.296875 122.160156 65.296875 C 115.625 65.296875 110.339844 60.007812 110.339844 53.496094 C 110.339844 46.96875 115.625 41.679688 122.160156 41.679688 Z M 189.308594 44.332031 L 335.917969 44.332031 L 335.917969 62.664062 L 189.308594 62.664062 Z M 363.902344 31.496094 L 11.027344 31.496094 C 4.945312 31.496094 0.0117188 36.414062 0.0117188 42.496094 L 0.0117188 274.714844 C 0.0117188 280.789062 4.945312 285.714844 11.027344 285.714844 L 363.902344 285.714844 C 369.988281 285.714844 374.914062 280.789062 374.914062 274.714844 L 374.914062 42.496094 C 374.914062 36.414062 369.988281 31.496094 363.902344 31.496094 " fill-opacity="1" fill-rule="nonzero"/></g><path fill="#7157f2" d="M 116.25 116.875 C 145.359375 116.875 169.039062 140.53125 169.039062 169.605469 C 169.039062 198.683594 145.359375 222.335938 116.25 222.335938 C 87.140625 222.335938 63.460938 198.683594 63.460938 169.605469 C 63.460938 140.53125 87.140625 116.875 116.25 116.875 Z M 59.308594 207.605469 L 48.488281 218.410156 L 67.390625 237.292969 L 78.210938 226.484375 C 85.746094 231.523438 94.035156 234.964844 102.886719 236.71875 L 102.886719 251.980469 L 129.613281 251.980469 L 129.613281 236.71875 C 138.488281 234.960938 146.78125 231.523438 154.292969 226.484375 L 165.109375 237.292969 L 184.011719 218.410156 L 173.191406 207.605469 C 178.234375 200.101562 181.675781 191.816406 183.4375 182.953125 L 198.714844 182.953125 L 198.714844 156.257812 L 183.4375 156.257812 C 181.683594 147.417969 178.238281 139.132812 173.191406 131.605469 L 184.011719 120.800781 L 165.109375 101.921875 L 154.289062 112.730469 C 146.765625 107.6875 138.472656 104.25 129.613281 102.492188 L 129.613281 87.230469 L 102.886719 87.230469 L 102.886719 102.492188 C 94.035156 104.246094 85.742188 107.683594 78.210938 112.730469 L 67.390625 101.921875 L 48.488281 120.800781 L 59.308594 131.605469 C 54.261719 139.136719 50.820312 147.417969 49.0625 156.257812 L 33.785156 156.257812 L 33.785156 182.953125 L 49.0625 182.953125 C 50.820312 191.804688 54.261719 200.089844 59.308594 207.605469 " fill-opacity="1" fill-rule="nonzero"/><path fill="#2196f3" d="M 341.140625 87.230469 L 210.464844 87.230469 L 210.464844 134.847656 L 341.140625 134.847656 L 341.140625 87.230469 " fill-opacity="1" fill-rule="nonzero"/><path fill="#7157f2" d="M 341.140625 237.3125 L 210.464844 237.3125 L 210.464844 251.980469 L 341.140625 251.980469 L 341.140625 237.3125 " fill-opacity="1" fill-rule="nonzero"/><path fill="#7157f2" d="M 210.464844 222.699219 L 341.140625 222.699219 L 341.140625 208.03125 L 210.464844 208.03125 L 210.464844 222.699219 " fill-opacity="1" fill-rule="nonzero"/><path fill="#7157f2" d="M 210.464844 193.414062 L 341.140625 193.414062 L 341.140625 178.746094 L 210.464844 178.746094 L 210.464844 193.414062 " fill-opacity="1" fill-rule="nonzero"/><path fill="#7157f2" d="M 210.464844 164.132812 L 341.140625 164.132812 L 341.140625 149.464844 L 210.464844 149.464844 L 210.464844 164.132812 " fill-opacity="1" fill-rule="nonzero"/><g clip-path="url(#7d80a2a2ea)"><g clip-path="url(#ad434e38e0)"><path fill="#2196f3" d="M 113.855469 326.324219 L 261.386719 326.324219 L 261.386719 344.480469 L 113.855469 344.480469 Z M 113.855469 326.324219 " fill-opacity="1" fill-rule="nonzero"/></g></g><g clip-path="url(#75e0262c08)"><g clip-path="url(#0086a8ca71)"><g clip-path="url(#82ba55ba18)"><path fill="#2196f3" d="M 130.394531 335.902344 L 152.914062 267.4375 L 169.609375 272.929688 L 147.09375 341.394531 Z M 130.394531 335.902344 " fill-opacity="1" fill-rule="nonzero"/></g></g></g><g clip-path="url(#2f8da6f6c5)"><g clip-path="url(#d9909715f2)"><g clip-path="url(#0f5a8f0b17)"><path fill="#2196f3" d="M 219.457031 266.683594 L 245.414062 335.796875 L 230.605469 341.359375 L 204.648438 272.246094 Z M 219.457031 266.683594 " fill-opacity="1" fill-rule="nonzero"/></g></g></g></svg>