<svg xmlns="http://www.w3.org/2000/svg" xmlns:xlink="http://www.w3.org/1999/xlink" width="500" zoomAndPan="magnify" viewBox="0 0 375 374.999991" height="500" preserveAspectRatio="xMidYMid meet" version="1.0"><defs><clipPath id="1374f6975f"><path d="M 229.839844 266.128906 L 217.742188 266.128906 L 217.742188 254.03125 L 229.839844 254.03125 Z M 278.226562 266.128906 L 266.128906 266.128906 L 266.128906 254.03125 L 278.226562 254.03125 Z M 302.417969 266.128906 L 290.324219 266.128906 L 290.324219 254.03125 L 302.417969 254.03125 Z M 254.03125 266.128906 L 241.933594 266.128906 L 241.933594 254.03125 L 254.03125 254.03125 Z M 108.871094 254.03125 L 169.355469 254.03125 L 169.355469 266.128906 L 108.871094 266.128906 Z M 84.675781 254.03125 L 96.773438 254.03125 L 96.773438 266.128906 L 84.675781 266.128906 Z M 24.195312 254.03125 L 72.582031 254.03125 L 72.582031 266.128906 L 24.195312 266.128906 Z M 24.195312 229.839844 L 169.355469 229.839844 L 169.355469 241.933594 L 24.195312 241.933594 Z M 60.484375 205.644531 L 169.355469 205.644531 L 169.355469 217.742188 L 60.484375 217.742188 Z M 48.386719 217.742188 L 24.195312 217.742188 L 24.195312 205.644531 L 48.386719 205.644531 Z M 145.160156 181.453125 L 133.066406 181.453125 L 133.066406 157.257812 L 145.160156 157.257812 Z M 157.257812 145.160156 L 120.96875 145.160156 L 120.96875 193.546875 L 157.257812 193.546875 Z M 96.773438 181.453125 L 84.675781 181.453125 L 84.675781 157.257812 L 96.773438 157.257812 Z M 108.871094 145.160156 L 72.582031 145.160156 L 72.582031 193.546875 L 108.871094 193.546875 Z M 48.386719 181.453125 L 36.289062 181.453125 L 36.289062 157.257812 L 48.386719 157.257812 Z M 60.484375 145.160156 L 24.195312 145.160156 L 24.195312 193.546875 L 60.484375 193.546875 Z M 302.417969 308.46875 C 302.417969 311.800781 299.703125 314.515625 296.371094 314.515625 C 293.039062 314.515625 290.324219 311.800781 290.324219 308.46875 C 290.324219 305.136719 293.039062 302.417969 296.371094 302.417969 C 299.703125 302.417969 302.417969 305.136719 302.417969 308.46875 Z M 278.226562 308.46875 C 278.226562 311.800781 275.507812 314.515625 272.175781 314.515625 C 268.847656 314.515625 266.128906 311.800781 266.128906 308.46875 C 266.128906 305.136719 268.847656 302.417969 272.175781 302.417969 C 275.507812 302.417969 278.226562 305.136719 278.226562 308.46875 Z M 254.03125 308.46875 C 254.03125 311.800781 251.316406 314.515625 247.984375 314.515625 C 244.652344 314.515625 241.933594 311.800781 241.933594 308.46875 C 241.933594 305.136719 244.652344 302.417969 247.984375 302.417969 C 251.316406 302.417969 254.03125 305.136719 254.03125 308.46875 Z M 266.128906 36.289062 L 254.03125 36.289062 L 254.03125 24.195312 L 266.128906 24.195312 Z M 217.742188 36.289062 L 205.644531 36.289062 L 205.644531 24.195312 L 217.742188 24.195312 Z M 241.933594 36.289062 L 229.839844 36.289062 L 229.839844 24.195312 L 241.933594 24.195312 Z M 356.855469 229.839844 L 199.597656 229.839844 C 196.265625 229.839844 193.546875 227.121094 193.546875 223.789062 L 193.546875 60.484375 L 362.902344 60.484375 L 362.902344 223.789062 C 362.902344 227.121094 360.1875 229.839844 356.855469 229.839844 Z M 314.515625 278.226562 L 12.097656 278.226562 L 12.097656 151.210938 C 12.097656 141.191406 20.222656 133.066406 30.242188 133.066406 L 181.453125 133.066406 L 181.453125 223.789062 C 181.453125 233.808594 189.578125 241.933594 199.597656 241.933594 L 314.515625 241.933594 Z M 296.371094 326.613281 L 30.242188 326.613281 C 20.222656 326.613281 12.097656 318.484375 12.097656 308.46875 L 12.097656 290.324219 L 314.515625 290.324219 L 314.515625 308.46875 C 314.515625 318.484375 306.386719 326.613281 296.371094 326.613281 Z M 217.742188 362.902344 L 108.871094 362.902344 L 108.871094 338.710938 L 217.742188 338.710938 Z M 72.582031 96.773438 L 102.824219 96.773438 C 117.421875 96.773438 129.636719 86.378906 132.449219 72.582031 L 181.453125 72.582031 L 181.453125 120.96875 L 72.582031 120.96875 Z M 12.097656 66.53125 C 12.097656 56.5625 20.175781 48.457031 30.574219 48.457031 C 30.621094 48.457031 30.667969 48.457031 30.691406 48.457031 L 36.457031 48.976562 L 37.992188 44.535156 C 42.21875 32.367188 53.679688 24.195312 66.53125 24.195312 C 79.386719 24.195312 90.84375 32.367188 95.074219 44.535156 L 96.609375 48.976562 L 102.824219 48.386719 C 112.839844 48.386719 120.96875 56.515625 120.96875 66.53125 C 120.96875 76.550781 112.839844 84.675781 102.824219 84.675781 L 30.242188 84.675781 C 20.222656 84.675781 12.097656 76.550781 12.097656 66.53125 Z M 199.597656 12.097656 L 356.855469 12.097656 C 360.1875 12.097656 362.902344 14.8125 362.902344 18.144531 L 362.902344 48.386719 L 193.546875 48.386719 L 193.546875 18.144531 C 193.546875 14.8125 196.265625 12.097656 199.597656 12.097656 Z M 356.855469 0 L 199.597656 0 C 189.578125 0 181.453125 8.128906 181.453125 18.144531 L 181.453125 60.484375 L 132.449219 60.484375 C 129.757812 47.324219 118.511719 37.234375 104.785156 36.359375 C 97.835938 21.6875 83 12.097656 66.53125 12.097656 C 50.066406 12.097656 35.226562 21.6875 28.28125 36.359375 C 12.523438 37.351562 0 50.511719 0 66.53125 C 0 83.210938 13.5625 96.773438 30.242188 96.773438 L 60.484375 96.773438 L 60.484375 120.96875 L 30.242188 120.96875 C 13.5625 120.96875 0 134.53125 0 151.210938 L 0 308.46875 C 0 325.148438 13.5625 338.710938 30.242188 338.710938 L 96.773438 338.710938 L 96.773438 362.902344 L 72.582031 362.902344 L 72.582031 375 L 254.03125 375 L 254.03125 362.902344 L 229.839844 362.902344 L 229.839844 338.710938 L 296.371094 338.710938 C 313.050781 338.710938 326.613281 325.148438 326.613281 308.46875 L 326.613281 241.933594 L 356.855469 241.933594 C 366.871094 241.933594 375 233.808594 375 223.789062 L 375 18.144531 C 375 8.128906 366.871094 0 356.855469 0 Z M 278.226562 163.304688 C 268.207031 163.304688 260.082031 155.179688 260.082031 145.160156 C 260.082031 135.144531 268.207031 127.015625 278.226562 127.015625 C 288.242188 127.015625 296.371094 135.144531 296.371094 145.160156 C 296.371094 155.179688 288.242188 163.304688 278.226562 163.304688 Z M 278.226562 114.917969 C 261.546875 114.917969 247.984375 128.480469 247.984375 145.160156 C 247.984375 161.839844 261.546875 175.402344 278.226562 175.402344 C 294.90625 175.402344 308.46875 161.839844 308.46875 145.160156 C 308.46875 128.480469 294.90625 114.917969 278.226562 114.917969 Z M 326.613281 152.910156 L 319.429688 155.296875 L 318.484375 158.203125 C 317.824219 160.234375 316.972656 162.335938 315.910156 164.394531 L 314.515625 167.109375 L 317.917969 173.914062 L 306.980469 184.855469 L 300.175781 181.453125 L 297.457031 182.84375 C 295.425781 183.886719 293.324219 184.757812 291.269531 185.421875 L 288.363281 186.390625 L 285.976562 193.546875 L 270.476562 193.546875 L 268.089844 186.390625 L 265.183594 185.421875 C 263.128906 184.757812 261.027344 183.886719 258.992188 182.84375 L 256.277344 181.453125 L 249.472656 184.855469 L 238.535156 173.914062 L 241.933594 167.109375 L 240.542969 164.394531 C 239.476562 162.335938 238.628906 160.234375 237.964844 158.203125 L 237.019531 155.296875 L 229.839844 152.910156 L 229.839844 137.410156 L 237.019531 135.027344 L 237.964844 132.121094 C 238.628906 130.085938 239.476562 127.984375 240.542969 125.929688 L 241.933594 123.210938 L 238.535156 116.40625 L 249.472656 105.46875 L 256.277344 108.871094 L 258.992188 107.476562 C 261.027344 106.4375 263.128906 105.5625 265.183594 104.902344 L 268.089844 103.933594 L 270.476562 96.773438 L 285.976562 96.773438 L 288.363281 103.933594 L 291.269531 104.902344 C 293.324219 105.5625 295.425781 106.4375 297.457031 107.476562 L 300.175781 108.871094 L 306.980469 105.46875 L 317.917969 116.40625 L 314.515625 123.210938 L 315.910156 125.929688 C 316.972656 127.984375 317.824219 130.085938 318.484375 132.121094 L 319.429688 135.027344 L 326.613281 137.410156 Z M 328.03125 123.234375 L 332.636719 114.023438 L 309.367188 90.75 L 300.152344 95.355469 C 299.417969 95.050781 298.6875 94.71875 297.929688 94.433594 L 294.667969 84.675781 L 261.78125 84.675781 L 258.519531 94.433594 C 257.765625 94.71875 257.03125 95.050781 256.300781 95.355469 L 247.085938 90.75 L 223.8125 114.023438 L 228.421875 123.234375 C 228.089844 123.96875 227.78125 124.699219 227.5 125.457031 L 217.742188 128.71875 L 217.742188 161.605469 L 227.5 164.867188 C 227.78125 165.621094 228.089844 166.355469 228.421875 167.085938 L 223.8125 176.300781 L 247.085938 199.574219 L 256.300781 194.964844 C 257.03125 195.273438 257.765625 195.605469 258.519531 195.886719 L 261.78125 205.644531 L 294.667969 205.644531 L 297.929688 195.886719 C 298.6875 195.605469 299.417969 195.273438 300.152344 194.964844 L 309.367188 199.574219 L 332.636719 176.300781 L 328.03125 167.085938 C 328.359375 166.355469 328.667969 165.621094 328.953125 164.867188 L 338.710938 161.605469 L 338.710938 128.71875 L 328.953125 125.457031 C 328.667969 124.699219 328.359375 123.96875 328.03125 123.234375 Z M 328.03125 123.234375 " clip-rule="nonzero"/></clipPath><clipPath id="5eac4d40ad"><path d="M 229.839844 266.128906 L 217.742188 266.128906 L 217.742188 254.03125 L 229.839844 254.03125 Z M 278.226562 266.128906 L 266.128906 266.128906 L 266.128906 254.03125 L 278.226562 254.03125 Z M 302.417969 266.128906 L 290.324219 266.128906 L 290.324219 254.03125 L 302.417969 254.03125 Z M 254.03125 266.128906 L 241.933594 266.128906 L 241.933594 254.03125 L 254.03125 254.03125 Z M 108.871094 254.03125 L 169.355469 254.03125 L 169.355469 266.128906 L 108.871094 266.128906 Z M 84.675781 254.03125 L 96.773438 254.03125 L 96.773438 266.128906 L 84.675781 266.128906 Z M 24.195312 254.03125 L 72.582031 254.03125 L 72.582031 266.128906 L 24.195312 266.128906 Z M 24.195312 229.839844 L 169.355469 229.839844 L 169.355469 241.933594 L 24.195312 241.933594 Z M 60.484375 205.644531 L 169.355469 205.644531 L 169.355469 217.742188 L 60.484375 217.742188 Z M 48.386719 217.742188 L 24.195312 217.742188 L 24.195312 205.644531 L 48.386719 205.644531 Z M 145.160156 181.453125 L 133.066406 181.453125 L 133.066406 157.257812 L 145.160156 157.257812 Z M 157.257812 145.160156 L 120.96875 145.160156 L 120.96875 193.546875 L 157.257812 193.546875 Z M 96.773438 181.453125 L 84.675781 181.453125 L 84.675781 157.257812 L 96.773438 157.257812 Z M 108.871094 145.160156 L 72.582031 145.160156 L 72.582031 193.546875 L 108.871094 193.546875 Z M 48.386719 181.453125 L 36.289062 181.453125 L 36.289062 157.257812 L 48.386719 157.257812 Z M 60.484375 145.160156 L 24.195312 145.160156 L 24.195312 193.546875 L 60.484375 193.546875 Z M 302.417969 308.46875 C 302.417969 311.800781 299.703125 314.515625 296.371094 314.515625 C 293.039062 314.515625 290.324219 311.800781 290.324219 308.46875 C 290.324219 305.136719 293.039062 302.417969 296.371094 302.417969 C 299.703125 302.417969 302.417969 305.136719 302.417969 308.46875 Z M 278.226562 308.46875 C 278.226562 311.800781 275.507812 314.515625 272.175781 314.515625 C 268.847656 314.515625 266.128906 311.800781 266.128906 308.46875 C 266.128906 305.136719 268.847656 302.417969 272.175781 302.417969 C 275.507812 302.417969 278.226562 305.136719 278.226562 308.46875 Z M 254.03125 308.46875 C 254.03125 311.800781 251.316406 314.515625 247.984375 314.515625 C 244.652344 314.515625 241.933594 311.800781 241.933594 308.46875 C 241.933594 305.136719 244.652344 302.417969 247.984375 302.417969 C 251.316406 302.417969 254.03125 305.136719 254.03125 308.46875 Z M 266.128906 36.289062 L 254.03125 36.289062 L 254.03125 24.195312 L 266.128906 24.195312 Z M 217.742188 36.289062 L 205.644531 36.289062 L 205.644531 24.195312 L 217.742188 24.195312 Z M 241.933594 36.289062 L 229.839844 36.289062 L 229.839844 24.195312 L 241.933594 24.195312 Z M 356.855469 229.839844 L 199.597656 229.839844 C 196.265625 229.839844 193.546875 227.121094 193.546875 223.789062 L 193.546875 60.484375 L 362.902344 60.484375 L 362.902344 223.789062 C 362.902344 227.121094 360.1875 229.839844 356.855469 229.839844 Z M 314.515625 278.226562 L 12.097656 278.226562 L 12.097656 151.210938 C 12.097656 141.191406 20.222656 133.066406 30.242188 133.066406 L 181.453125 133.066406 L 181.453125 223.789062 C 181.453125 233.808594 189.578125 241.933594 199.597656 241.933594 L 314.515625 241.933594 Z M 296.371094 326.613281 L 30.242188 326.613281 C 20.222656 326.613281 12.097656 318.484375 12.097656 308.46875 L 12.097656 290.324219 L 314.515625 290.324219 L 314.515625 308.46875 C 314.515625 318.484375 306.386719 326.613281 296.371094 326.613281 Z M 217.742188 362.902344 L 108.871094 362.902344 L 108.871094 338.710938 L 217.742188 338.710938 Z M 72.582031 96.773438 L 102.824219 96.773438 C 117.421875 96.773438 129.636719 86.378906 132.449219 72.582031 L 181.453125 72.582031 L 181.453125 120.96875 L 72.582031 120.96875 Z M 12.097656 66.53125 C 12.097656 56.5625 20.175781 48.457031 30.574219 48.457031 C 30.621094 48.457031 30.667969 48.457031 30.691406 48.457031 L 36.457031 48.976562 L 37.992188 44.535156 C 42.21875 32.367188 53.679688 24.195312 66.53125 24.195312 C 79.386719 24.195312 90.84375 32.367188 95.074219 44.535156 L 96.609375 48.976562 L 102.824219 48.386719 C 112.839844 48.386719 120.96875 56.515625 120.96875 66.53125 C 120.96875 76.550781 112.839844 84.675781 102.824219 84.675781 L 30.242188 84.675781 C 20.222656 84.675781 12.097656 76.550781 12.097656 66.53125 Z M 199.597656 12.097656 L 356.855469 12.097656 C 360.1875 12.097656 362.902344 14.8125 362.902344 18.144531 L 362.902344 48.386719 L 193.546875 48.386719 L 193.546875 18.144531 C 193.546875 14.8125 196.265625 12.097656 199.597656 12.097656 Z M 356.855469 0 L 199.597656 0 C 189.578125 0 181.453125 8.128906 181.453125 18.144531 L 181.453125 60.484375 L 132.449219 60.484375 C 129.757812 47.324219 118.511719 37.234375 104.785156 36.359375 C 97.835938 21.6875 83 12.097656 66.53125 12.097656 C 50.066406 12.097656 35.226562 21.6875 28.28125 36.359375 C 12.523438 37.351562 0 50.511719 0 66.53125 C 0 83.210938 13.5625 96.773438 30.242188 96.773438 L 60.484375 96.773438 L 60.484375 120.96875 L 30.242188 120.96875 C 13.5625 120.96875 0 134.53125 0 151.210938 L 0 308.46875 C 0 325.148438 13.5625 338.710938 30.242188 338.710938 L 96.773438 338.710938 L 96.773438 362.902344 L 72.582031 362.902344 L 72.582031 375 L 254.03125 375 L 254.03125 362.902344 L 229.839844 362.902344 L 229.839844 338.710938 L 296.371094 338.710938 C 313.050781 338.710938 326.613281 325.148438 326.613281 308.46875 L 326.613281 241.933594 L 356.855469 241.933594 C 366.871094 241.933594 375 233.808594 375 223.789062 L 375 18.144531 C 375 8.128906 366.871094 0 356.855469 0 Z M 278.226562 163.304688 C 268.207031 163.304688 260.082031 155.179688 260.082031 145.160156 C 260.082031 135.144531 268.207031 127.015625 278.226562 127.015625 C 288.242188 127.015625 296.371094 135.144531 296.371094 145.160156 C 296.371094 155.179688 288.242188 163.304688 278.226562 163.304688 Z M 278.226562 114.917969 C 261.546875 114.917969 247.984375 128.480469 247.984375 145.160156 C 247.984375 161.839844 261.546875 175.402344 278.226562 175.402344 C 294.90625 175.402344 308.46875 161.839844 308.46875 145.160156 C 308.46875 128.480469 294.90625 114.917969 278.226562 114.917969 Z M 326.613281 152.910156 L 319.429688 155.296875 L 318.484375 158.203125 C 317.824219 160.234375 316.972656 162.335938 315.910156 164.394531 L 314.515625 167.109375 L 317.917969 173.914062 L 306.980469 184.855469 L 300.175781 181.453125 L 297.457031 182.84375 C 295.425781 183.886719 293.324219 184.757812 291.269531 185.421875 L 288.363281 186.390625 L 285.976562 193.546875 L 270.476562 193.546875 L 268.089844 186.390625 L 265.183594 185.421875 C 263.128906 184.757812 261.027344 183.886719 258.992188 182.84375 L 256.277344 181.453125 L 249.472656 184.855469 L 238.535156 173.914062 L 241.933594 167.109375 L 240.542969 164.394531 C 239.476562 162.335938 238.628906 160.234375 237.964844 158.203125 L 237.019531 155.296875 L 229.839844 152.910156 L 229.839844 137.410156 L 237.019531 135.027344 L 237.964844 132.121094 C 238.628906 130.085938 239.476562 127.984375 240.542969 125.929688 L 241.933594 123.210938 L 238.535156 116.40625 L 249.472656 105.46875 L 256.277344 108.871094 L 258.992188 107.476562 C 261.027344 106.4375 263.128906 105.5625 265.183594 104.902344 L 268.089844 103.933594 L 270.476562 96.773438 L 285.976562 96.773438 L 288.363281 103.933594 L 291.269531 104.902344 C 293.324219 105.5625 295.425781 106.4375 297.457031 107.476562 L 300.175781 108.871094 L 306.980469 105.46875 L 317.917969 116.40625 L 314.515625 123.210938 L 315.910156 125.929688 C 316.972656 127.984375 317.824219 130.085938 318.484375 132.121094 L 319.429688 135.027344 L 326.613281 137.410156 Z M 328.03125 123.234375 L 332.636719 114.023438 L 309.367188 90.75 L 300.152344 95.355469 C 299.417969 95.050781 298.6875 94.71875 297.929688 94.433594 L 294.667969 84.675781 L 261.78125 84.675781 L 258.519531 94.433594 C 257.765625 94.71875 257.03125 95.050781 256.300781 95.355469 L 247.085938 90.75 L 223.8125 114.023438 L 228.421875 123.234375 C 228.089844 123.96875 227.78125 124.699219 227.5 125.457031 L 217.742188 128.71875 L 217.742188 161.605469 L 227.5 164.867188 C 227.78125 165.621094 228.089844 166.355469 228.421875 167.085938 L 223.8125 176.300781 L 247.085938 199.574219 L 256.300781 194.964844 C 257.03125 195.273438 257.765625 195.605469 258.519531 195.886719 L 261.78125 205.644531 L 294.667969 205.644531 L 297.929688 195.886719 C 298.6875 195.605469 299.417969 195.273438 300.152344 194.964844 L 309.367188 199.574219 L 332.636719 176.300781 L 328.03125 167.085938 C 328.359375 166.355469 328.667969 165.621094 328.953125 164.867188 L 338.710938 161.605469 L 338.710938 128.71875 L 328.953125 125.457031 C 328.667969 124.699219 328.359375 123.96875 328.03125 123.234375 " clip-rule="nonzero"/></clipPath><linearGradient x1="0.00000008284" gradientTransform="matrix(0, -374.999991, 374.999991, 0, 187.5, 374.999993)" y1="0" x2="1" gradientUnits="userSpaceOnUse" y2="0" id="009a67ea01"><stop stop-opacity="1" stop-color="rgb(62.399292%, 18.399048%, 100%)" offset="0"/><stop stop-opacity="1" stop-color="rgb(62.199402%, 18.598938%, 100%)" offset="0.00390625"/><stop stop-opacity="1" stop-color="rgb(61.999512%, 18.798828%, 100%)" offset="0.0078125"/><stop stop-opacity="1" stop-color="rgb(61.799622%, 18.998718%, 99.798584%)" offset="0.0117188"/><stop stop-opacity="1" stop-color="rgb(61.599731%, 19.198608%, 99.598694%)" offset="0.015625"/><stop stop-opacity="1" stop-color="rgb(61.376953%, 19.419861%, 99.598694%)" offset="0.0195312"/><stop stop-opacity="1" stop-color="rgb(61.155701%, 19.642639%, 99.598694%)" offset="0.0234375"/><stop stop-opacity="1" stop-color="rgb(60.777283%, 19.833374%, 99.586487%)" offset="0.0273438"/><stop stop-opacity="1" stop-color="rgb(60.398865%, 20.024109%, 99.57428%)" offset="0.03125"/><stop stop-opacity="1" stop-color="rgb(60.198975%, 20.214844%, 99.386597%)" offset="0.0351562"/><stop stop-opacity="1" stop-color="rgb(59.999084%, 20.405579%, 99.198914%)" offset="0.0390625"/><stop stop-opacity="1" stop-color="rgb(59.805298%, 20.602417%, 99.198914%)" offset="0.0429688"/><stop stop-opacity="1" stop-color="rgb(59.611511%, 20.799255%, 99.198914%)" offset="0.046875"/><stop stop-opacity="1" stop-color="rgb(59.405518%, 20.999146%, 99.198914%)" offset="0.0507812"/><stop stop-opacity="1" stop-color="rgb(59.199524%, 21.199036%, 99.198914%)" offset="0.0546875"/><stop stop-opacity="1" stop-color="rgb(58.999634%, 21.398926%, 98.999023%)" offset="0.0585938"/><stop stop-opacity="1" stop-color="rgb(58.799744%, 21.598816%, 98.799133%)" offset="0.0625"/><stop stop-opacity="1" stop-color="rgb(58.583069%, 21.813965%, 98.799133%)" offset="0.0664062"/><stop stop-opacity="1" stop-color="rgb(58.36792%, 22.03064%, 98.799133%)" offset="0.0703125"/><stop stop-opacity="1" stop-color="rgb(57.983398%, 22.219849%, 98.79303%)" offset="0.0742188"/><stop stop-opacity="1" stop-color="rgb(57.598877%, 22.409058%, 98.786926%)" offset="0.078125"/><stop stop-opacity="1" stop-color="rgb(57.450867%, 22.554016%, 98.59314%)" offset="0.0859375"/><stop stop-opacity="1" stop-color="rgb(57.113647%, 22.898865%, 98.399353%)" offset="0.0898438"/><stop stop-opacity="1" stop-color="rgb(56.924438%, 23.098755%, 98.399353%)" offset="0.09375"/><stop stop-opacity="1" stop-color="rgb(56.733704%, 23.298645%, 98.399353%)" offset="0.0976562"/><stop stop-opacity="1" stop-color="rgb(56.542969%, 23.498535%, 98.399353%)" offset="0.101562"/><stop stop-opacity="1" stop-color="rgb(56.30188%, 23.716736%, 98.199463%)" offset="0.105469"/><stop stop-opacity="1" stop-color="rgb(56.062317%, 23.936462%, 97.999573%)" offset="0.109375"/><stop stop-opacity="1" stop-color="rgb(55.871582%, 24.127197%, 97.999573%)" offset="0.117188"/><stop stop-opacity="1" stop-color="rgb(55.290222%, 24.508667%, 97.799683%)" offset="0.121094"/><stop stop-opacity="1" stop-color="rgb(54.899597%, 24.699402%, 97.599792%)" offset="0.125"/><stop stop-opacity="1" stop-color="rgb(54.708862%, 24.899292%, 97.599792%)" offset="0.128906"/><stop stop-opacity="1" stop-color="rgb(54.518127%, 25.099182%, 97.599792%)" offset="0.132812"/><stop stop-opacity="1" stop-color="rgb(54.327393%, 25.299072%, 97.599792%)" offset="0.136719"/><stop stop-opacity="1" stop-color="rgb(54.136658%, 25.498962%, 97.599792%)" offset="0.140625"/><stop stop-opacity="1" stop-color="rgb(53.895569%, 25.720215%, 97.44873%)" offset="0.144531"/><stop stop-opacity="1" stop-color="rgb(53.656006%, 25.942993%, 97.299194%)" offset="0.148438"/><stop stop-opacity="1" stop-color="rgb(53.465271%, 26.133728%, 97.299194%)" offset="0.15625"/><stop stop-opacity="1" stop-color="rgb(53.083801%, 26.515198%, 97.299194%)" offset="0.164062"/><stop stop-opacity="1" stop-color="rgb(52.696228%, 26.902771%, 97.105408%)" offset="0.167969"/><stop stop-opacity="1" stop-color="rgb(52.49939%, 27.099609%, 96.911621%)" offset="0.171875"/><stop stop-opacity="1" stop-color="rgb(52.165222%, 27.2995%, 96.905518%)" offset="0.175781"/><stop stop-opacity="1" stop-color="rgb(51.831055%, 27.49939%, 96.899414%)" offset="0.179688"/><stop stop-opacity="1" stop-color="rgb(51.64032%, 27.648926%, 96.899414%)" offset="0.1875"/><stop stop-opacity="1" stop-color="rgb(51.223755%, 28.015137%, 96.699524%)" offset="0.191406"/><stop stop-opacity="1" stop-color="rgb(50.999451%, 28.230286%, 96.499634%)" offset="0.195312"/><stop stop-opacity="1" stop-color="rgb(50.793457%, 28.421021%, 96.499634%)" offset="0.199219"/><stop stop-opacity="1" stop-color="rgb(50.587463%, 28.611755%, 96.499634%)" offset="0.203125"/><stop stop-opacity="1" stop-color="rgb(50.393677%, 28.805542%, 96.499634%)" offset="0.210938"/><stop stop-opacity="1" stop-color="rgb(49.998474%, 29.199219%, 96.311951%)" offset="0.214844"/><stop stop-opacity="1" stop-color="rgb(49.798584%, 29.399109%, 96.124268%)" offset="0.21875"/><stop stop-opacity="1" stop-color="rgb(49.420166%, 29.598999%, 96.112061%)" offset="0.222656"/><stop stop-opacity="1" stop-color="rgb(49.043274%, 29.798889%, 96.099854%)" offset="0.226562"/><stop stop-opacity="1" stop-color="rgb(48.820496%, 30.01709%, 96.099854%)" offset="0.230469"/><stop stop-opacity="1" stop-color="rgb(48.599243%, 30.236816%, 96.099854%)" offset="0.234375"/><stop stop-opacity="1" stop-color="rgb(48.399353%, 30.427551%, 95.898438%)" offset="0.238281"/><stop stop-opacity="1" stop-color="rgb(48.199463%, 30.618286%, 95.698547%)" offset="0.242188"/><stop stop-opacity="1" stop-color="rgb(47.999573%, 30.809021%, 95.698547%)" offset="0.246094"/><stop stop-opacity="1" stop-color="rgb(47.799683%, 30.999756%, 95.698547%)" offset="0.25"/><stop stop-opacity="1" stop-color="rgb(47.648621%, 31.390381%, 95.698547%)" offset="0.253906"/><stop stop-opacity="1" stop-color="rgb(47.499084%, 31.781006%, 95.698547%)" offset="0.257812"/><stop stop-opacity="1" stop-color="rgb(47.299194%, 31.971741%, 95.498657%)" offset="0.261719"/><stop stop-opacity="1" stop-color="rgb(47.099304%, 32.162476%, 95.298767%)" offset="0.265625"/><stop stop-opacity="1" stop-color="rgb(46.876526%, 32.330322%, 95.298767%)" offset="0.269531"/><stop stop-opacity="1" stop-color="rgb(46.655273%, 32.499695%, 95.298767%)" offset="0.273438"/><stop stop-opacity="1" stop-color="rgb(46.276855%, 32.699585%, 95.28656%)" offset="0.277344"/><stop stop-opacity="1" stop-color="rgb(45.899963%, 32.899475%, 95.274353%)" offset="0.28125"/><stop stop-opacity="1" stop-color="rgb(45.698547%, 33.099365%, 95.08667%)" offset="0.285156"/><stop stop-opacity="1" stop-color="rgb(45.498657%, 33.299255%, 94.898987%)" offset="0.289062"/><stop stop-opacity="1" stop-color="rgb(45.304871%, 33.493042%, 94.898987%)" offset="0.296875"/><stop stop-opacity="1" stop-color="rgb(44.90509%, 33.877563%, 94.898987%)" offset="0.300781"/><stop stop-opacity="1" stop-color="rgb(44.699097%, 34.068298%, 94.898987%)" offset="0.304688"/><stop stop-opacity="1" stop-color="rgb(44.499207%, 34.259033%, 94.699097%)" offset="0.308594"/><stop stop-opacity="1" stop-color="rgb(44.299316%, 34.449768%, 94.499207%)" offset="0.3125"/><stop stop-opacity="1" stop-color="rgb(44.082642%, 34.674072%, 94.499207%)" offset="0.316406"/><stop stop-opacity="1" stop-color="rgb(43.867493%, 34.899902%, 94.499207%)" offset="0.320312"/><stop stop-opacity="1" stop-color="rgb(43.482971%, 35.099792%, 94.493103%)" offset="0.324219"/><stop stop-opacity="1" stop-color="rgb(43.099976%, 35.299683%, 94.487%)" offset="0.328125"/><stop stop-opacity="1" stop-color="rgb(42.901611%, 35.496521%, 94.293213%)" offset="0.332031"/><stop stop-opacity="1" stop-color="rgb(42.704773%, 35.693359%, 94.099426%)" offset="0.335938"/><stop stop-opacity="1" stop-color="rgb(42.56134%, 35.884094%, 94.099426%)" offset="0.34375"/><stop stop-opacity="1" stop-color="rgb(42.230225%, 36.264038%, 94.099426%)" offset="0.351562"/><stop stop-opacity="1" stop-color="rgb(41.801453%, 36.676025%, 93.899536%)" offset="0.355469"/><stop stop-opacity="1" stop-color="rgb(41.56189%, 36.898804%, 93.699646%)" offset="0.359375"/><stop stop-opacity="1" stop-color="rgb(41.371155%, 37.098694%, 93.699646%)" offset="0.363281"/><stop stop-opacity="1" stop-color="rgb(41.18042%, 37.298584%, 93.699646%)" offset="0.367188"/><stop stop-opacity="1" stop-color="rgb(40.789795%, 37.44812%, 93.499756%)" offset="0.371094"/><stop stop-opacity="1" stop-color="rgb(40.39917%, 37.599182%, 93.299866%)" offset="0.375"/><stop stop-opacity="1" stop-color="rgb(40.208435%, 37.789917%, 93.299866%)" offset="0.382812"/><stop stop-opacity="1" stop-color="rgb(39.826965%, 38.171387%, 93.299866%)" offset="0.390625"/><stop stop-opacity="1" stop-color="rgb(39.395142%, 38.580322%, 93.09845%)" offset="0.394531"/><stop stop-opacity="1" stop-color="rgb(39.155579%, 38.798523%, 92.89856%)" offset="0.398438"/><stop stop-opacity="1" stop-color="rgb(38.964844%, 38.998413%, 92.89856%)" offset="0.402344"/><stop stop-opacity="1" stop-color="rgb(38.774109%, 39.199829%, 92.89856%)" offset="0.40625"/><stop stop-opacity="1" stop-color="rgb(38.583374%, 39.399719%, 92.89856%)" offset="0.410156"/><stop stop-opacity="1" stop-color="rgb(38.392639%, 39.599609%, 92.89856%)" offset="0.414062"/><stop stop-opacity="1" stop-color="rgb(38.195801%, 39.793396%, 92.704773%)" offset="0.417969"/><stop stop-opacity="1" stop-color="rgb(37.998962%, 39.987183%, 92.510986%)" offset="0.421875"/><stop stop-opacity="1" stop-color="rgb(37.660217%, 40.177917%, 92.504883%)" offset="0.425781"/><stop stop-opacity="1" stop-color="rgb(37.322998%, 40.368652%, 92.498779%)" offset="0.429688"/><stop stop-opacity="1" stop-color="rgb(37.135315%, 40.557861%, 92.498779%)" offset="0.4375"/><stop stop-opacity="1" stop-color="rgb(36.723328%, 40.9729%, 92.349243%)" offset="0.441406"/><stop stop-opacity="1" stop-color="rgb(36.499023%, 41.19873%, 92.199707%)" offset="0.445312"/><stop stop-opacity="1" stop-color="rgb(36.29303%, 41.398621%, 92.199707%)" offset="0.449219"/><stop stop-opacity="1" stop-color="rgb(36.087036%, 41.598511%, 92.199707%)" offset="0.453125"/><stop stop-opacity="1" stop-color="rgb(35.89325%, 41.795349%, 92.199707%)" offset="0.457031"/><stop stop-opacity="1" stop-color="rgb(35.699463%, 41.993713%, 92.199707%)" offset="0.460938"/><stop stop-opacity="1" stop-color="rgb(35.499573%, 42.182922%, 92.012024%)" offset="0.464844"/><stop stop-opacity="1" stop-color="rgb(35.299683%, 42.373657%, 91.824341%)" offset="0.46875"/><stop stop-opacity="1" stop-color="rgb(34.921265%, 42.520142%, 91.812134%)" offset="0.472656"/><stop stop-opacity="1" stop-color="rgb(34.542847%, 42.666626%, 91.799927%)" offset="0.476562"/><stop stop-opacity="1" stop-color="rgb(34.320068%, 42.883301%, 91.799927%)" offset="0.480469"/><stop stop-opacity="1" stop-color="rgb(34.098816%, 43.099976%, 91.799927%)" offset="0.484375"/><stop stop-opacity="1" stop-color="rgb(33.898926%, 43.299866%, 91.598511%)" offset="0.488281"/><stop stop-opacity="1" stop-color="rgb(33.699036%, 43.499756%, 91.398621%)" offset="0.492188"/><stop stop-opacity="1" stop-color="rgb(33.499146%, 43.699646%, 91.398621%)" offset="0.496094"/><stop stop-opacity="1" stop-color="rgb(33.299255%, 43.899536%, 91.398621%)" offset="0.5"/><stop stop-opacity="1" stop-color="rgb(33.099365%, 44.099426%, 91.398621%)" offset="0.503906"/><stop stop-opacity="1" stop-color="rgb(32.899475%, 44.299316%, 91.398621%)" offset="0.507812"/><stop stop-opacity="1" stop-color="rgb(32.699585%, 44.499207%, 91.19873%)" offset="0.511719"/><stop stop-opacity="1" stop-color="rgb(32.499695%, 44.699097%, 90.99884%)" offset="0.515625"/><stop stop-opacity="1" stop-color="rgb(32.327271%, 44.920349%, 90.99884%)" offset="0.519531"/><stop stop-opacity="1" stop-color="rgb(32.154846%, 45.143127%, 90.99884%)" offset="0.523438"/><stop stop-opacity="1" stop-color="rgb(31.776428%, 45.333862%, 90.986633%)" offset="0.527344"/><stop stop-opacity="1" stop-color="rgb(31.399536%, 45.524597%, 90.974426%)" offset="0.53125"/><stop stop-opacity="1" stop-color="rgb(31.199646%, 45.715332%, 90.786743%)" offset="0.535156"/><stop stop-opacity="1" stop-color="rgb(30.999756%, 45.906067%, 90.59906%)" offset="0.539062"/><stop stop-opacity="1" stop-color="rgb(30.805969%, 46.102905%, 90.59906%)" offset="0.542969"/><stop stop-opacity="1" stop-color="rgb(30.612183%, 46.299744%, 90.59906%)" offset="0.546875"/><stop stop-opacity="1" stop-color="rgb(30.404663%, 46.499634%, 90.59906%)" offset="0.550781"/><stop stop-opacity="1" stop-color="rgb(30.198669%, 46.699524%, 90.59906%)" offset="0.554688"/><stop stop-opacity="1" stop-color="rgb(29.998779%, 46.899414%, 90.39917%)" offset="0.558594"/><stop stop-opacity="1" stop-color="rgb(29.798889%, 47.099304%, 90.19928%)" offset="0.5625"/><stop stop-opacity="1" stop-color="rgb(29.58374%, 47.309875%, 90.19928%)" offset="0.566406"/><stop stop-opacity="1" stop-color="rgb(29.368591%, 47.521973%, 90.19928%)" offset="0.570312"/><stop stop-opacity="1" stop-color="rgb(28.98407%, 47.666931%, 90.193176%)" offset="0.574219"/><stop stop-opacity="1" stop-color="rgb(28.599548%, 47.81189%, 90.187073%)" offset="0.578125"/><stop stop-opacity="1" stop-color="rgb(28.40271%, 48.005676%, 89.993286%)" offset="0.582031"/><stop stop-opacity="1" stop-color="rgb(28.205872%, 48.199463%, 89.7995%)" offset="0.585938"/><stop stop-opacity="1" stop-color="rgb(28.015137%, 48.399353%, 89.7995%)" offset="0.589844"/><stop stop-opacity="1" stop-color="rgb(27.824402%, 48.599243%, 89.7995%)" offset="0.59375"/><stop stop-opacity="1" stop-color="rgb(27.677917%, 48.799133%, 89.7995%)" offset="0.597656"/><stop stop-opacity="1" stop-color="rgb(27.531433%, 48.999023%, 89.7995%)" offset="0.601562"/><stop stop-opacity="1" stop-color="rgb(27.296448%, 49.217224%, 89.599609%)" offset="0.605469"/><stop stop-opacity="1" stop-color="rgb(27.061462%, 49.436951%, 89.399719%)" offset="0.609375"/><stop stop-opacity="1" stop-color="rgb(26.870728%, 49.627686%, 89.399719%)" offset="0.617188"/><stop stop-opacity="1" stop-color="rgb(26.289368%, 50.009155%, 89.199829%)" offset="0.621094"/><stop stop-opacity="1" stop-color="rgb(25.898743%, 50.19989%, 88.999939%)" offset="0.625"/><stop stop-opacity="1" stop-color="rgb(25.708008%, 50.39978%, 88.999939%)" offset="0.628906"/><stop stop-opacity="1" stop-color="rgb(25.517273%, 50.59967%, 88.999939%)" offset="0.632812"/><stop stop-opacity="1" stop-color="rgb(25.326538%, 50.799561%, 88.999939%)" offset="0.636719"/><stop stop-opacity="1" stop-color="rgb(25.137329%, 50.999451%, 88.999939%)" offset="0.640625"/><stop stop-opacity="1" stop-color="rgb(24.89624%, 51.220703%, 88.798523%)" offset="0.644531"/><stop stop-opacity="1" stop-color="rgb(24.655151%, 51.443481%, 88.598633%)" offset="0.648438"/><stop stop-opacity="1" stop-color="rgb(24.464417%, 51.634216%, 88.598633%)" offset="0.65625"/><stop stop-opacity="1" stop-color="rgb(24.082947%, 52.01416%, 88.598633%)" offset="0.664062"/><stop stop-opacity="1" stop-color="rgb(23.695374%, 52.351379%, 88.404846%)" offset="0.667969"/><stop stop-opacity="1" stop-color="rgb(23.498535%, 52.49939%, 88.21106%)" offset="0.671875"/><stop stop-opacity="1" stop-color="rgb(23.114014%, 52.69928%, 88.204956%)" offset="0.675781"/><stop stop-opacity="1" stop-color="rgb(22.731018%, 52.89917%, 88.198853%)" offset="0.679688"/><stop stop-opacity="1" stop-color="rgb(22.583008%, 53.09906%, 88.198853%)" offset="0.683594"/><stop stop-opacity="1" stop-color="rgb(22.436523%, 53.29895%, 88.198853%)" offset="0.6875"/><stop stop-opacity="1" stop-color="rgb(22.216797%, 53.514099%, 87.998962%)" offset="0.691406"/><stop stop-opacity="1" stop-color="rgb(21.998596%, 53.730774%, 87.799072%)" offset="0.695312"/><stop stop-opacity="1" stop-color="rgb(21.792603%, 53.921509%, 87.799072%)" offset="0.699219"/><stop stop-opacity="1" stop-color="rgb(21.586609%, 54.112244%, 87.799072%)" offset="0.703125"/><stop stop-opacity="1" stop-color="rgb(21.392822%, 54.30603%, 87.799072%)" offset="0.710938"/><stop stop-opacity="1" stop-color="rgb(20.999146%, 54.699707%, 87.658691%)" offset="0.714844"/><stop stop-opacity="1" stop-color="rgb(20.799255%, 54.899597%, 87.518311%)" offset="0.71875"/><stop stop-opacity="1" stop-color="rgb(20.420837%, 55.099487%, 87.509155%)" offset="0.722656"/><stop stop-opacity="1" stop-color="rgb(20.042419%, 55.299377%, 87.5%)" offset="0.726562"/><stop stop-opacity="1" stop-color="rgb(19.821167%, 55.517578%, 87.5%)" offset="0.730469"/><stop stop-opacity="1" stop-color="rgb(19.599915%, 55.737305%, 87.5%)" offset="0.734375"/><stop stop-opacity="1" stop-color="rgb(19.398499%, 55.926514%, 87.298584%)" offset="0.738281"/><stop stop-opacity="1" stop-color="rgb(19.198608%, 56.117249%, 87.098694%)" offset="0.742188"/><stop stop-opacity="1" stop-color="rgb(18.998718%, 56.307983%, 87.098694%)" offset="0.746094"/><stop stop-opacity="1" stop-color="rgb(18.798828%, 56.498718%, 87.098694%)" offset="0.75"/><stop stop-opacity="1" stop-color="rgb(18.598938%, 56.889343%, 87.098694%)" offset="0.753906"/><stop stop-opacity="1" stop-color="rgb(18.399048%, 57.279968%, 87.098694%)" offset="0.757812"/><stop stop-opacity="1" stop-color="rgb(18.199158%, 57.424927%, 86.898804%)" offset="0.761719"/><stop stop-opacity="1" stop-color="rgb(17.999268%, 57.571411%, 86.698914%)" offset="0.765625"/><stop stop-opacity="1" stop-color="rgb(17.782593%, 57.785034%, 86.698914%)" offset="0.769531"/><stop stop-opacity="1" stop-color="rgb(17.565918%, 57.998657%, 86.698914%)" offset="0.773438"/><stop stop-opacity="1" stop-color="rgb(17.23175%, 58.198547%, 86.686707%)" offset="0.777344"/><stop stop-opacity="1" stop-color="rgb(16.899109%, 58.399963%, 86.6745%)" offset="0.78125"/><stop stop-opacity="1" stop-color="rgb(16.699219%, 58.599854%, 86.486816%)" offset="0.785156"/><stop stop-opacity="1" stop-color="rgb(16.499329%, 58.799744%, 86.299133%)" offset="0.789062"/><stop stop-opacity="1" stop-color="rgb(16.305542%, 58.99353%, 86.299133%)" offset="0.796875"/><stop stop-opacity="1" stop-color="rgb(15.905762%, 59.376526%, 86.299133%)" offset="0.800781"/><stop stop-opacity="1" stop-color="rgb(15.699768%, 59.567261%, 86.299133%)" offset="0.804688"/><stop stop-opacity="1" stop-color="rgb(15.499878%, 59.757996%, 86.099243%)" offset="0.808594"/><stop stop-opacity="1" stop-color="rgb(15.299988%, 59.94873%, 85.899353%)" offset="0.8125"/><stop stop-opacity="1" stop-color="rgb(15.083313%, 60.173035%, 85.899353%)" offset="0.816406"/><stop stop-opacity="1" stop-color="rgb(14.868164%, 60.398865%, 85.899353%)" offset="0.820312"/><stop stop-opacity="1" stop-color="rgb(14.483643%, 60.598755%, 85.89325%)" offset="0.824219"/><stop stop-opacity="1" stop-color="rgb(14.099121%, 60.798645%, 85.887146%)" offset="0.828125"/><stop stop-opacity="1" stop-color="rgb(13.902283%, 60.995483%, 85.693359%)" offset="0.832031"/><stop stop-opacity="1" stop-color="rgb(13.705444%, 61.192322%, 85.499573%)" offset="0.835938"/><stop stop-opacity="1" stop-color="rgb(13.514709%, 61.383057%, 85.499573%)" offset="0.84375"/><stop stop-opacity="1" stop-color="rgb(13.13324%, 61.764526%, 85.499573%)" offset="0.851562"/><stop stop-opacity="1" stop-color="rgb(12.705994%, 62.176514%, 85.299683%)" offset="0.855469"/><stop stop-opacity="1" stop-color="rgb(12.471008%, 62.399292%, 85.099792%)" offset="0.859375"/><stop stop-opacity="1" stop-color="rgb(12.32605%, 62.548828%, 85.099792%)" offset="0.867188"/><stop stop-opacity="1" stop-color="rgb(11.790466%, 62.89978%, 84.898376%)" offset="0.871094"/><stop stop-opacity="1" stop-color="rgb(11.399841%, 63.09967%, 84.698486%)" offset="0.875"/><stop stop-opacity="1" stop-color="rgb(11.209106%, 63.290405%, 84.698486%)" offset="0.882812"/><stop stop-opacity="1" stop-color="rgb(10.827637%, 63.670349%, 84.698486%)" offset="0.890625"/><stop stop-opacity="1" stop-color="rgb(10.395813%, 64.079285%, 84.498596%)" offset="0.894531"/><stop stop-opacity="1" stop-color="rgb(10.154724%, 64.299011%, 84.298706%)" offset="0.898438"/><stop stop-opacity="1" stop-color="rgb(9.963989%, 64.498901%, 84.298706%)" offset="0.902344"/><stop stop-opacity="1" stop-color="rgb(9.77478%, 64.698792%, 84.298706%)" offset="0.90625"/><stop stop-opacity="1" stop-color="rgb(9.584045%, 64.898682%, 84.298706%)" offset="0.910156"/><stop stop-opacity="1" stop-color="rgb(9.393311%, 65.098572%, 84.298706%)" offset="0.914062"/><stop stop-opacity="1" stop-color="rgb(9.196472%, 65.292358%, 84.104919%)" offset="0.917969"/><stop stop-opacity="1" stop-color="rgb(8.999634%, 65.486145%, 83.911133%)" offset="0.921875"/><stop stop-opacity="1" stop-color="rgb(8.615112%, 65.67688%, 83.905029%)" offset="0.925781"/><stop stop-opacity="1" stop-color="rgb(8.230591%, 65.867615%, 83.898926%)" offset="0.929688"/><stop stop-opacity="1" stop-color="rgb(8.039856%, 66.05835%, 83.898926%)" offset="0.9375"/><stop stop-opacity="1" stop-color="rgb(7.673645%, 66.473389%, 83.699036%)" offset="0.941406"/><stop stop-opacity="1" stop-color="rgb(7.499695%, 66.699219%, 83.499146%)" offset="0.945312"/><stop stop-opacity="1" stop-color="rgb(7.292175%, 66.899109%, 83.499146%)" offset="0.949219"/><stop stop-opacity="1" stop-color="rgb(7.086182%, 67.098999%, 83.499146%)" offset="0.953125"/><stop stop-opacity="1" stop-color="rgb(6.892395%, 67.295837%, 83.499146%)" offset="0.957031"/><stop stop-opacity="1" stop-color="rgb(6.698608%, 67.492676%, 83.499146%)" offset="0.960938"/><stop stop-opacity="1" stop-color="rgb(6.498718%, 67.636108%, 83.311462%)" offset="0.964844"/><stop stop-opacity="1" stop-color="rgb(6.298828%, 67.781067%, 83.123779%)" offset="0.96875"/><stop stop-opacity="1" stop-color="rgb(5.92041%, 67.967224%, 83.111572%)" offset="0.972656"/><stop stop-opacity="1" stop-color="rgb(5.543518%, 68.154907%, 83.099365%)" offset="0.976562"/><stop stop-opacity="1" stop-color="rgb(5.32074%, 68.37616%, 83.099365%)" offset="0.980469"/><stop stop-opacity="1" stop-color="rgb(5.099487%, 68.598938%, 83.099365%)" offset="0.984375"/><stop stop-opacity="1" stop-color="rgb(4.899597%, 68.798828%, 82.899475%)" offset="0.988281"/><stop stop-opacity="1" stop-color="rgb(4.699707%, 68.998718%, 82.699585%)" offset="0.992188"/><stop stop-opacity="1" stop-color="rgb(4.499817%, 69.198608%, 82.699585%)" offset="0.996094"/><stop stop-opacity="1" stop-color="rgb(4.299927%, 69.398499%, 82.699585%)" offset="1"/></linearGradient></defs><g clip-path="url(#1374f6975f)"><g clip-path="url(#5eac4d40ad)"><rect x="-37.5" fill="url(#009a67ea01)" width="450" y="-37.499999" height="449.999989"/></g></g></svg>