<svg xmlns="http://www.w3.org/2000/svg" xmlns:xlink="http://www.w3.org/1999/xlink" width="500" zoomAndPan="magnify" viewBox="0 0 375 374.999991" height="500" preserveAspectRatio="xMidYMid meet" version="1.0"><defs><clipPath id="1be9a71ca5"><path d="M 250.261719 174.664062 L 335.808594 174.664062 L 335.808594 260 L 250.261719 260 Z M 250.261719 174.664062 " clip-rule="nonzero"/></clipPath><clipPath id="49bc2ebd47"><path d="M 36.707031 74.292969 L 122.257812 74.292969 L 122.257812 159.84375 L 36.707031 159.84375 Z M 36.707031 74.292969 " clip-rule="nonzero"/></clipPath></defs><path fill="#085fce" d="M 358.210938 311.035156 L 16.070312 311.035156 L 16.070312 62.207031 L 215.609375 62.207031 C 219.902344 62.207031 223.386719 58.722656 223.386719 54.429688 C 223.386719 50.136719 219.902344 46.65625 215.609375 46.65625 L 8.292969 46.65625 C 4 46.65625 0.519531 50.136719 0.519531 54.429688 L 0.519531 318.8125 C 0.519531 323.105469 4 326.585938 8.292969 326.585938 L 365.984375 326.585938 C 370.277344 326.585938 373.761719 323.105469 373.761719 318.8125 L 373.761719 54.429688 C 373.761719 50.136719 370.277344 46.65625 365.984375 46.65625 C 361.691406 46.65625 358.210938 50.136719 358.210938 54.429688 Z M 358.210938 311.035156 " fill-opacity="1" fill-rule="nonzero"/><path fill="#085fce" d="M 8.292969 295.484375 L 365.984375 295.484375 C 370.277344 295.484375 373.761719 292 373.761719 287.707031 C 373.761719 283.414062 370.277344 279.933594 365.984375 279.933594 L 8.292969 279.933594 C 4 279.933594 0.519531 283.414062 0.519531 287.707031 C 0.519531 292 4 295.484375 8.292969 295.484375 Z M 8.292969 295.484375 " fill-opacity="1" fill-rule="nonzero"/><path fill="#085fce" d="M 117.15625 373.242188 L 257.121094 373.242188 C 261.414062 373.242188 264.898438 369.761719 264.898438 365.46875 C 264.898438 361.175781 261.414062 357.691406 257.121094 357.691406 L 117.15625 357.691406 C 112.863281 357.691406 109.382812 361.175781 109.382812 365.46875 C 109.382812 369.761719 112.863281 373.242188 117.15625 373.242188 Z M 117.15625 373.242188 " fill-opacity="1" fill-rule="nonzero"/><path fill="#085fce" d="M 140.078125 367.9375 L 155.632812 321.28125 C 157.007812 317.191406 154.78125 312.777344 150.730469 311.441406 C 146.640625 310.0625 142.226562 312.292969 140.890625 316.339844 L 125.335938 362.996094 C 123.960938 367.085938 126.1875 371.5 130.238281 372.835938 C 134.328125 374.214844 138.742188 371.988281 140.078125 367.9375 Z M 140.078125 367.9375 " fill-opacity="1" fill-rule="nonzero"/><path fill="#085fce" d="M 234.199219 367.9375 L 218.648438 321.28125 C 217.269531 317.191406 219.5 312.777344 223.546875 311.441406 C 227.640625 310.0625 232.054688 312.292969 233.390625 316.339844 L 248.941406 362.996094 C 250.320312 367.085938 248.089844 371.5 244.042969 372.835938 C 239.949219 374.214844 235.535156 371.988281 234.199219 367.9375 Z M 234.199219 367.9375 " fill-opacity="1" fill-rule="nonzero"/><path fill="#085fce" d="M 333.019531 69.78125 L 173.898438 209.503906 C 172.398438 210.800781 165.3125 200.796875 157.414062 193.019531 C 148.828125 184.554688 139.511719 178.15625 140.929688 176.535156 L 280.652344 17.414062 C 295.070312 1.175781 319.328125 0.445312 334.640625 15.792969 C 350.027344 31.144531 349.257812 55.363281 333.019531 69.78125 Z M 323.664062 26.769531 C 314.632812 17.777344 300.78125 18.183594 292.316406 27.703125 L 157.414062 181.316406 L 169.117188 193.019531 L 322.691406 58.15625 C 332.25 49.652344 332.695312 35.800781 323.664062 26.769531 Z M 323.664062 26.769531 " fill-opacity="1" fill-rule="nonzero"/><path fill="#085fce" d="M 74.1875 247.332031 C 69.53125 243.5625 70.703125 236.152344 76.292969 234.003906 C 86.296875 230.199219 91.519531 223.113281 98.566406 206.832031 C 104.886719 192.25 106.625 188.847656 111.566406 183.867188 C 126.753906 168.679688 151.378906 168.679688 166.566406 183.867188 C 181.753906 199.054688 181.753906 223.679688 166.566406 238.867188 C 146.113281 259.277344 100.835938 268.714844 74.1875 247.332031 Z M 155.550781 227.851562 C 164.664062 218.738281 164.664062 203.996094 155.550781 194.882812 C 146.4375 185.769531 131.695312 185.769531 122.582031 194.882812 C 119.667969 197.800781 118.128906 200.753906 112.863281 212.988281 C 107.152344 226.1875 102.011719 234.976562 94.761719 241.09375 C 114.929688 248.179688 142.710938 240.730469 155.550781 227.851562 Z M 155.550781 227.851562 " fill-opacity="1" fill-rule="nonzero"/><path fill="#085fce" d="M 173.289062 154.667969 L 195.726562 176.984375 C 198.761719 180.019531 203.664062 180.019531 206.699219 176.984375 C 209.738281 173.945312 209.738281 169.003906 206.699219 165.964844 L 184.265625 143.652344 C 181.226562 140.613281 176.285156 140.65625 173.25 143.691406 C 170.210938 146.730469 170.25 151.628906 173.289062 154.667969 Z M 173.289062 154.667969 " fill-opacity="1" fill-rule="nonzero"/><g clip-path="url(#1be9a71ca5)"><path fill="#7157f2" d="M 292.933594 174.566406 C 292.46875 174.574219 292.007812 174.625 291.554688 174.722656 C 291.101562 174.820312 290.660156 174.960938 290.234375 175.144531 C 289.808594 175.328125 289.40625 175.550781 289.023438 175.8125 C 288.640625 176.078125 288.289062 176.375 287.964844 176.707031 C 287.640625 177.039062 287.355469 177.402344 287.101562 177.792969 C 286.847656 178.179688 286.636719 178.589844 286.464844 179.023438 C 286.292969 179.453125 286.167969 179.898438 286.082031 180.351562 C 285.996094 180.808594 285.957031 181.269531 285.964844 181.734375 L 285.964844 210.015625 L 257.683594 210.015625 C 257.214844 210.007812 256.75 210.046875 256.289062 210.132812 C 255.828125 210.21875 255.382812 210.347656 254.949219 210.523438 C 254.511719 210.699219 254.101562 210.914062 253.707031 211.171875 C 253.316406 211.425781 252.953125 211.71875 252.621094 212.050781 C 252.285156 212.378906 251.988281 212.738281 251.726562 213.125 C 251.464844 213.511719 251.242188 213.921875 251.0625 214.355469 C 250.878906 214.789062 250.742188 215.234375 250.652344 215.691406 C 250.558594 216.152344 250.511719 216.617188 250.511719 217.085938 C 250.511719 217.554688 250.558594 218.015625 250.652344 218.476562 C 250.742188 218.9375 250.878906 219.382812 251.0625 219.8125 C 251.242188 220.246094 251.464844 220.65625 251.726562 221.042969 C 251.988281 221.433594 252.285156 221.789062 252.621094 222.121094 C 252.953125 222.449219 253.316406 222.742188 253.707031 223 C 254.101562 223.253906 254.511719 223.472656 254.949219 223.644531 C 255.382812 223.820312 255.828125 223.949219 256.289062 224.035156 C 256.75 224.121094 257.214844 224.160156 257.683594 224.15625 L 285.964844 224.15625 L 285.964844 252.4375 C 285.957031 252.902344 285.996094 253.367188 286.082031 253.828125 C 286.167969 254.289062 286.300781 254.738281 286.472656 255.171875 C 286.648438 255.605469 286.863281 256.019531 287.121094 256.410156 C 287.378906 256.804688 287.671875 257.167969 288 257.5 C 288.328125 257.832031 288.6875 258.132812 289.074219 258.394531 C 289.464844 258.65625 289.875 258.878906 290.304688 259.058594 C 290.738281 259.238281 291.183594 259.375 291.644531 259.46875 C 292.101562 259.558594 292.566406 259.605469 293.035156 259.605469 C 293.503906 259.605469 293.96875 259.558594 294.425781 259.46875 C 294.886719 259.375 295.332031 259.238281 295.765625 259.058594 C 296.195312 258.878906 296.605469 258.65625 296.996094 258.394531 C 297.382812 258.132812 297.742188 257.832031 298.070312 257.5 C 298.398438 257.167969 298.691406 256.804688 298.949219 256.410156 C 299.207031 256.019531 299.421875 255.605469 299.597656 255.171875 C 299.769531 254.738281 299.902344 254.289062 299.988281 253.828125 C 300.074219 253.367188 300.113281 252.902344 300.105469 252.4375 L 300.105469 224.15625 L 328.386719 224.15625 C 328.855469 224.160156 329.320312 224.121094 329.78125 224.035156 C 330.242188 223.949219 330.6875 223.820312 331.121094 223.644531 C 331.558594 223.472656 331.972656 223.253906 332.363281 223 C 332.753906 222.742188 333.117188 222.449219 333.449219 222.121094 C 333.785156 221.789062 334.082031 221.433594 334.34375 221.042969 C 334.605469 220.65625 334.828125 220.246094 335.007812 219.8125 C 335.191406 219.382812 335.328125 218.9375 335.417969 218.476562 C 335.511719 218.015625 335.558594 217.554688 335.558594 217.085938 C 335.558594 216.617188 335.511719 216.152344 335.417969 215.691406 C 335.328125 215.234375 335.191406 214.789062 335.007812 214.355469 C 334.828125 213.921875 334.605469 213.511719 334.34375 213.125 C 334.082031 212.738281 333.785156 212.378906 333.449219 212.050781 C 333.117188 211.71875 332.753906 211.425781 332.363281 211.171875 C 331.972656 210.914062 331.558594 210.699219 331.121094 210.523438 C 330.6875 210.347656 330.242188 210.21875 329.78125 210.132812 C 329.320312 210.046875 328.855469 210.007812 328.386719 210.015625 L 300.105469 210.015625 L 300.105469 181.734375 C 300.113281 181.261719 300.070312 180.792969 299.984375 180.328125 C 299.894531 179.863281 299.761719 179.410156 299.585938 178.972656 C 299.40625 178.535156 299.1875 178.121094 298.925781 177.726562 C 298.664062 177.332031 298.367188 176.96875 298.03125 176.632812 C 297.699219 176.300781 297.335938 176.003906 296.941406 175.742188 C 296.546875 175.480469 296.128906 175.261719 295.691406 175.082031 C 295.253906 174.90625 294.800781 174.773438 294.335938 174.6875 C 293.871094 174.601562 293.40625 174.558594 292.933594 174.566406 Z M 292.933594 174.566406 " fill-opacity="1" fill-rule="nonzero"/></g><g clip-path="url(#49bc2ebd47)"><path fill="#7157f2" d="M 79.378906 74.199219 C 78.914062 74.203125 78.457031 74.257812 78 74.355469 C 77.546875 74.449219 77.109375 74.589844 76.683594 74.773438 C 76.253906 74.957031 75.851562 75.183594 75.46875 75.445312 C 75.085938 75.707031 74.734375 76.007812 74.410156 76.339844 C 74.089844 76.671875 73.800781 77.035156 73.546875 77.421875 C 73.296875 77.8125 73.082031 78.222656 72.910156 78.652344 C 72.742188 79.085938 72.613281 79.527344 72.527344 79.984375 C 72.445312 80.441406 72.40625 80.902344 72.410156 81.363281 L 72.410156 109.644531 L 44.128906 109.644531 C 43.660156 109.640625 43.199219 109.679688 42.738281 109.765625 C 42.277344 109.851562 41.828125 109.980469 41.394531 110.15625 C 40.960938 110.328125 40.546875 110.546875 40.152344 110.800781 C 39.761719 111.058594 39.398438 111.351562 39.066406 111.679688 C 38.734375 112.007812 38.433594 112.367188 38.171875 112.757812 C 37.910156 113.144531 37.6875 113.554688 37.507812 113.988281 C 37.328125 114.417969 37.191406 114.863281 37.097656 115.324219 C 37.003906 115.785156 36.960938 116.246094 36.960938 116.714844 C 36.960938 117.183594 37.003906 117.648438 37.097656 118.109375 C 37.191406 118.566406 37.328125 119.011719 37.507812 119.445312 C 37.6875 119.878906 37.910156 120.289062 38.171875 120.675781 C 38.433594 121.0625 38.734375 121.421875 39.066406 121.75 C 39.398438 122.078125 39.761719 122.371094 40.152344 122.628906 C 40.546875 122.886719 40.960938 123.101562 41.394531 123.277344 C 41.828125 123.453125 42.277344 123.582031 42.738281 123.667969 C 43.199219 123.753906 43.660156 123.792969 44.128906 123.785156 L 72.410156 123.785156 L 72.410156 152.066406 C 72.40625 152.535156 72.445312 153 72.53125 153.460938 C 72.617188 153.921875 72.746094 154.367188 72.921875 154.804688 C 73.09375 155.238281 73.3125 155.652344 73.566406 156.042969 C 73.824219 156.433594 74.117188 156.796875 74.445312 157.132812 C 74.773438 157.464844 75.132812 157.761719 75.523438 158.023438 C 75.910156 158.289062 76.320312 158.507812 76.753906 158.691406 C 77.183594 158.871094 77.628906 159.007812 78.089844 159.097656 C 78.550781 159.191406 79.011719 159.238281 79.480469 159.238281 C 79.949219 159.238281 80.414062 159.191406 80.875 159.097656 C 81.332031 159.007812 81.777344 158.871094 82.210938 158.691406 C 82.644531 158.507812 83.054688 158.289062 83.441406 158.023438 C 83.828125 157.761719 84.1875 157.464844 84.515625 157.132812 C 84.84375 156.796875 85.136719 156.433594 85.394531 156.042969 C 85.652344 155.652344 85.867188 155.238281 86.042969 154.804688 C 86.21875 154.367188 86.347656 153.921875 86.433594 153.460938 C 86.519531 153 86.558594 152.535156 86.550781 152.066406 L 86.550781 123.785156 L 114.832031 123.785156 C 115.300781 123.792969 115.765625 123.753906 116.226562 123.667969 C 116.6875 123.582031 117.132812 123.453125 117.570312 123.277344 C 118.003906 123.101562 118.417969 122.886719 118.808594 122.628906 C 119.199219 122.371094 119.5625 122.078125 119.898438 121.75 C 120.230469 121.421875 120.527344 121.0625 120.789062 120.675781 C 121.054688 120.289062 121.273438 119.878906 121.457031 119.445312 C 121.636719 119.011719 121.773438 118.566406 121.863281 118.109375 C 121.957031 117.648438 122.003906 117.183594 122.003906 116.714844 C 122.003906 116.246094 121.957031 115.785156 121.863281 115.324219 C 121.773438 114.863281 121.636719 114.417969 121.457031 113.988281 C 121.273438 113.554688 121.054688 113.144531 120.789062 112.757812 C 120.527344 112.367188 120.230469 112.007812 119.898438 111.679688 C 119.5625 111.351562 119.199219 111.058594 118.808594 110.800781 C 118.417969 110.546875 118.003906 110.328125 117.570312 110.15625 C 117.132812 109.980469 116.6875 109.851562 116.226562 109.765625 C 115.765625 109.679688 115.300781 109.640625 114.832031 109.644531 L 86.550781 109.644531 L 86.550781 81.363281 C 86.558594 80.890625 86.519531 80.421875 86.429688 79.960938 C 86.34375 79.496094 86.210938 79.042969 86.03125 78.605469 C 85.855469 78.167969 85.632812 77.75 85.371094 77.359375 C 85.113281 76.964844 84.8125 76.601562 84.480469 76.265625 C 84.144531 75.933594 83.78125 75.632812 83.386719 75.375 C 82.992188 75.113281 82.574219 74.894531 82.136719 74.714844 C 81.699219 74.539062 81.25 74.40625 80.785156 74.316406 C 80.320312 74.230469 79.851562 74.191406 79.378906 74.199219 Z M 79.378906 74.199219 " fill-opacity="1" fill-rule="nonzero"/></g></svg>