<svg xmlns="http://www.w3.org/2000/svg" xmlns:xlink="http://www.w3.org/1999/xlink" width="500" zoomAndPan="magnify" viewBox="0 0 375 374.999991" height="500" preserveAspectRatio="xMidYMid meet" version="1.0"><path fill="#3f51b5" d="M 210 195.917969 L 218.523438 140.625 L 243.75 140.625 L 223.847656 234.375 L 201.5625 234.375 L 187.546875 178.707031 L 173.484375 234.375 L 151.199219 234.375 L 131.25 140.625 L 156.515625 140.625 L 164.867188 197.203125 L 178.3125 140.625 L 196.679688 140.625 Z M 78.75 195.917969 L 87.273438 140.625 L 112.5 140.625 L 92.597656 234.375 L 70.3125 234.375 L 56.296875 178.707031 L 42.234375 234.375 L 19.949219 234.375 L 0 140.625 L 25.265625 140.625 L 33.617188 197.203125 L 47.0625 140.625 L 65.429688 140.625 Z M 341.25 195.917969 L 349.773438 140.625 L 375 140.625 L 355.097656 234.375 L 332.8125 234.375 L 318.796875 178.707031 L 304.734375 234.375 L 282.449219 234.375 L 262.5 140.625 L 287.765625 140.625 L 296.117188 197.203125 L 309.5625 140.625 L 327.929688 140.625 Z M 341.25 195.917969 " fill-opacity="1" fill-rule="nonzero"/><path fill="#2196f3" d="M 42.1875 75 L 332.8125 75 L 332.8125 93.75 L 42.1875 93.75 Z M 42.1875 75 " fill-opacity="1" fill-rule="nonzero"/><path fill="#2196f3" d="M 42.1875 75 L 332.8125 75 L 332.8125 93.75 L 42.1875 93.75 Z M 42.1875 281.25 L 332.8125 281.25 L 332.8125 300 L 42.1875 300 Z M 42.1875 281.25 " fill-opacity="1" fill-rule="nonzero"/><path fill="#2196f3" d="M 32.117188 121.875 C 51.664062 75.835938 91.078125 40.179688 139.574219 25.78125 C 121.152344 47.324219 106.949219 81.074219 99.515625 121.875 L 118.714844 121.875 C 129.148438 68.257812 151.707031 28.105469 178.125 20.289062 L 178.125 121.875 L 196.875 121.875 L 196.875 20.289062 C 223.292969 28.097656 245.851562 68.257812 256.285156 121.875 L 275.484375 121.875 C 268.050781 81.074219 253.847656 47.324219 235.425781 25.78125 C 283.921875 40.179688 323.335938 75.835938 342.882812 121.875 L 362.914062 121.875 C 336.234375 50.804688 267.777344 0 187.5 0 C 107.222656 0 38.765625 50.804688 12.085938 121.875 Z M 342.882812 253.125 C 323.335938 299.164062 283.921875 334.820312 235.425781 349.21875 C 253.847656 327.675781 268.050781 293.925781 275.484375 253.125 L 256.285156 253.125 C 245.851562 306.742188 223.292969 346.894531 196.875 354.710938 L 196.875 253.125 L 178.125 253.125 L 178.125 354.710938 C 151.707031 346.902344 129.148438 306.742188 118.714844 253.125 L 99.515625 253.125 C 106.949219 293.925781 121.152344 327.675781 139.574219 349.21875 C 91.078125 334.820312 51.664062 299.164062 32.117188 253.125 L 12.085938 253.125 C 38.765625 324.195312 107.222656 375 187.5 375 C 267.777344 375 336.234375 324.195312 362.914062 253.125 Z M 342.882812 253.125 " fill-opacity="1" fill-rule="nonzero"/></svg>